# MagicaVoxel @ Ephtracy

# group
g zunko_Bow2

# material
mtllib zunko_Bow2.mtl
usemtl palette

# normals
vn -1 0 0
vn 1 0 0
vn 0 0 1
vn 0 0 -1
vn 0 -1 0
vn 0 1 0

# texcoords
vt 0.146484 0.5
vt 0.177734 0.5

# verts
v -0.5 0 1
v -0.5 0 -0
v -0.5 1 2
v -0.5 1 1
v -0.5 1 -0
v -0.5 1 -1
v -0.5 2 3
v -0.5 2 2
v -0.5 4 1
v -0.5 4 -0
v -0.5 4 -1
v -0.5 4 -2
v -0.5 5 4
v -0.5 5 3
v -0.5 6 5
v -0.5 6 4
v -0.5 6 1
v -0.5 6 -1
v -0.5 6 -2
v -0.5 6 -3
v -0.5 8 -2
v -0.5 8 -3
v -0.5 8 -4
v -0.5 9 6
v -0.5 9 5
v -0.5 9 4
v -0.5 10 -3
v -0.5 10 -4
v -0.5 10 -5
v -0.5 12 7
v -0.5 12 6
v -0.5 12 5
v -0.5 12 -4
v -0.5 12 -5
v -0.5 12 -6
v -0.5 14 -5
v -0.5 14 -6
v -0.5 14 -7
v -0.5 19 -5
v -0.5 19 -6
v -0.5 19 -7
v -0.5 21 7
v -0.5 21 6
v -0.5 21 5
v -0.5 21 -4
v -0.5 21 -5
v -0.5 21 -6
v -0.5 23 -3
v -0.5 23 -4
v -0.5 23 -5
v -0.5 24 6
v -0.5 24 5
v -0.5 24 4
v -0.5 25 -2
v -0.5 25 -3
v -0.5 25 -4
v -0.5 27 5
v -0.5 27 4
v -0.5 27 1
v -0.5 27 -1
v -0.5 27 -2
v -0.5 27 -3
v -0.5 28 4
v -0.5 28 3
v -0.5 29 1
v -0.5 29 -0
v -0.5 29 -1
v -0.5 29 -2
v -0.5 31 3
v -0.5 31 2
v -0.5 32 2
v -0.5 32 1
v -0.5 32 -0
v -0.5 32 -1
v -0.5 33 1
v -0.5 33 -0
v 0.5 0 1
v 0.5 0 -0
v 0.5 1 2
v 0.5 1 1
v 0.5 1 -0
v 0.5 1 -1
v 0.5 2 3
v 0.5 2 2
v 0.5 4 1
v 0.5 4 -0
v 0.5 4 -1
v 0.5 4 -2
v 0.5 5 4
v 0.5 5 3
v 0.5 6 5
v 0.5 6 4
v 0.5 6 1
v 0.5 6 -1
v 0.5 6 -2
v 0.5 6 -3
v 0.5 8 -2
v 0.5 8 -3
v 0.5 8 -4
v 0.5 9 6
v 0.5 9 5
v 0.5 9 4
v 0.5 10 -3
v 0.5 10 -4
v 0.5 10 -5
v 0.5 12 7
v 0.5 12 6
v 0.5 12 5
v 0.5 12 -4
v 0.5 12 -5
v 0.5 12 -6
v 0.5 14 -5
v 0.5 14 -6
v 0.5 14 -7
v 0.5 19 -5
v 0.5 19 -6
v 0.5 19 -7
v 0.5 21 7
v 0.5 21 6
v 0.5 21 5
v 0.5 21 -4
v 0.5 21 -5
v 0.5 21 -6
v 0.5 23 -3
v 0.5 23 -4
v 0.5 23 -5
v 0.5 24 6
v 0.5 24 5
v 0.5 24 4
v 0.5 25 -2
v 0.5 25 -3
v 0.5 25 -4
v 0.5 27 5
v 0.5 27 4
v 0.5 27 1
v 0.5 27 -1
v 0.5 27 -2
v 0.5 27 -3
v 0.5 28 4
v 0.5 28 3
v 0.5 29 1
v 0.5 29 -0
v 0.5 29 -1
v 0.5 29 -2
v 0.5 31 3
v 0.5 31 2
v 0.5 32 2
v 0.5 32 1
v 0.5 32 -0
v 0.5 32 -1
v 0.5 33 1
v 0.5 33 -0
v -0.5 12 7
v -0.5 21 7
v 0.5 12 7
v 0.5 21 7
v -0.5 9 6
v -0.5 12 6
v -0.5 21 6
v -0.5 24 6
v 0.5 9 6
v 0.5 12 6
v 0.5 21 6
v 0.5 24 6
v -0.5 6 5
v -0.5 9 5
v -0.5 24 5
v -0.5 27 5
v 0.5 6 5
v 0.5 9 5
v 0.5 24 5
v 0.5 27 5
v -0.5 5 4
v -0.5 6 4
v -0.5 27 4
v -0.5 28 4
v 0.5 5 4
v 0.5 6 4
v 0.5 27 4
v 0.5 28 4
v -0.5 2 3
v -0.5 5 3
v -0.5 28 3
v -0.5 31 3
v 0.5 2 3
v 0.5 5 3
v 0.5 28 3
v 0.5 31 3
v -0.5 1 2
v -0.5 2 2
v -0.5 31 2
v -0.5 32 2
v 0.5 1 2
v 0.5 2 2
v 0.5 31 2
v 0.5 32 2
v -0.5 0 1
v -0.5 1 1
v -0.5 32 1
v -0.5 33 1
v 0.5 0 1
v 0.5 1 1
v 0.5 32 1
v 0.5 33 1
v -0.5 4 -1
v -0.5 6 -1
v -0.5 27 -1
v -0.5 29 -1
v 0.5 4 -1
v 0.5 6 -1
v 0.5 27 -1
v 0.5 29 -1
v -0.5 6 -2
v -0.5 8 -2
v -0.5 25 -2
v -0.5 27 -2
v 0.5 6 -2
v 0.5 8 -2
v 0.5 25 -2
v 0.5 27 -2
v -0.5 8 -3
v -0.5 10 -3
v -0.5 23 -3
v -0.5 25 -3
v 0.5 8 -3
v 0.5 10 -3
v 0.5 23 -3
v 0.5 25 -3
v -0.5 10 -4
v -0.5 12 -4
v -0.5 21 -4
v -0.5 23 -4
v 0.5 10 -4
v 0.5 12 -4
v 0.5 21 -4
v 0.5 23 -4
v -0.5 12 -5
v -0.5 14 -5
v -0.5 19 -5
v -0.5 21 -5
v 0.5 12 -5
v 0.5 14 -5
v 0.5 19 -5
v 0.5 21 -5
v -0.5 14 -6
v -0.5 19 -6
v 0.5 14 -6
v 0.5 19 -6
v -0.5 12 6
v -0.5 21 6
v 0.5 12 6
v 0.5 21 6
v -0.5 9 5
v -0.5 12 5
v -0.5 21 5
v -0.5 24 5
v 0.5 9 5
v 0.5 12 5
v 0.5 21 5
v 0.5 24 5
v -0.5 6 4
v -0.5 9 4
v -0.5 24 4
v -0.5 27 4
v 0.5 6 4
v 0.5 9 4
v 0.5 24 4
v 0.5 27 4
v -0.5 4 1
v -0.5 6 1
v -0.5 27 1
v -0.5 29 1
v 0.5 4 1
v 0.5 6 1
v 0.5 27 1
v 0.5 29 1
v -0.5 0 -0
v -0.5 1 -0
v -0.5 32 -0
v -0.5 33 -0
v 0.5 0 -0
v 0.5 1 -0
v 0.5 32 -0
v 0.5 33 -0
v -0.5 1 -1
v -0.5 4 -1
v -0.5 29 -1
v -0.5 32 -1
v 0.5 1 -1
v 0.5 4 -1
v 0.5 29 -1
v 0.5 32 -1
v -0.5 4 -2
v -0.5 6 -2
v -0.5 27 -2
v -0.5 29 -2
v 0.5 4 -2
v 0.5 6 -2
v 0.5 27 -2
v 0.5 29 -2
v -0.5 6 -3
v -0.5 8 -3
v -0.5 25 -3
v -0.5 27 -3
v 0.5 6 -3
v 0.5 8 -3
v 0.5 25 -3
v 0.5 27 -3
v -0.5 8 -4
v -0.5 10 -4
v -0.5 23 -4
v -0.5 25 -4
v 0.5 8 -4
v 0.5 10 -4
v 0.5 23 -4
v 0.5 25 -4
v -0.5 10 -5
v -0.5 12 -5
v -0.5 21 -5
v -0.5 23 -5
v 0.5 10 -5
v 0.5 12 -5
v 0.5 21 -5
v 0.5 23 -5
v -0.5 12 -6
v -0.5 14 -6
v -0.5 19 -6
v -0.5 21 -6
v 0.5 12 -6
v 0.5 14 -6
v 0.5 19 -6
v 0.5 21 -6
v -0.5 14 -7
v -0.5 19 -7
v 0.5 14 -7
v 0.5 19 -7
v -0.5 0 1
v 0.5 0 1
v -0.5 0 -0
v 0.5 0 -0
v -0.5 1 2
v 0.5 1 2
v -0.5 1 1
v 0.5 1 1
v -0.5 1 -0
v 0.5 1 -0
v -0.5 1 -1
v 0.5 1 -1
v -0.5 2 3
v 0.5 2 3
v -0.5 2 2
v 0.5 2 2
v -0.5 4 -1
v 0.5 4 -1
v -0.5 4 -2
v 0.5 4 -2
v -0.5 5 4
v 0.5 5 4
v -0.5 5 3
v 0.5 5 3
v -0.5 6 5
v 0.5 6 5
v -0.5 6 4
v 0.5 6 4
v -0.5 6 -2
v 0.5 6 -2
v -0.5 6 -3
v 0.5 6 -3
v -0.5 8 -3
v 0.5 8 -3
v -0.5 8 -4
v 0.5 8 -4
v -0.5 9 6
v 0.5 9 6
v -0.5 9 5
v 0.5 9 5
v -0.5 10 -4
v 0.5 10 -4
v -0.5 10 -5
v 0.5 10 -5
v -0.5 12 7
v 0.5 12 7
v -0.5 12 6
v 0.5 12 6
v -0.5 12 -5
v 0.5 12 -5
v -0.5 12 -6
v 0.5 12 -6
v -0.5 14 -6
v 0.5 14 -6
v -0.5 14 -7
v 0.5 14 -7
v -0.5 19 -5
v 0.5 19 -5
v -0.5 19 -6
v 0.5 19 -6
v -0.5 21 6
v 0.5 21 6
v -0.5 21 5
v 0.5 21 5
v -0.5 21 -4
v 0.5 21 -4
v -0.5 21 -5
v 0.5 21 -5
v -0.5 23 -3
v 0.5 23 -3
v -0.5 23 -4
v 0.5 23 -4
v -0.5 24 5
v 0.5 24 5
v -0.5 24 4
v 0.5 24 4
v -0.5 25 -2
v 0.5 25 -2
v -0.5 25 -3
v 0.5 25 -3
v -0.5 27 4
v 0.5 27 4
v -0.5 27 1
v 0.5 27 1
v -0.5 27 -1
v 0.5 27 -1
v -0.5 27 -2
v 0.5 27 -2
v -0.5 29 1
v 0.5 29 1
v -0.5 29 -0
v 0.5 29 -0
v -0.5 29 -1
v 0.5 29 -1
v -0.5 4 1
v 0.5 4 1
v -0.5 4 -0
v 0.5 4 -0
v -0.5 4 -1
v 0.5 4 -1
v -0.5 6 4
v 0.5 6 4
v -0.5 6 1
v 0.5 6 1
v -0.5 6 -1
v 0.5 6 -1
v -0.5 6 -2
v 0.5 6 -2
v -0.5 8 -2
v 0.5 8 -2
v -0.5 8 -3
v 0.5 8 -3
v -0.5 9 5
v 0.5 9 5
v -0.5 9 4
v 0.5 9 4
v -0.5 10 -3
v 0.5 10 -3
v -0.5 10 -4
v 0.5 10 -4
v -0.5 12 6
v 0.5 12 6
v -0.5 12 5
v 0.5 12 5
v -0.5 12 -4
v 0.5 12 -4
v -0.5 12 -5
v 0.5 12 -5
v -0.5 14 -5
v 0.5 14 -5
v -0.5 14 -6
v 0.5 14 -6
v -0.5 19 -6
v 0.5 19 -6
v -0.5 19 -7
v 0.5 19 -7
v -0.5 21 7
v 0.5 21 7
v -0.5 21 6
v 0.5 21 6
v -0.5 21 -5
v 0.5 21 -5
v -0.5 21 -6
v 0.5 21 -6
v -0.5 23 -4
v 0.5 23 -4
v -0.5 23 -5
v 0.5 23 -5
v -0.5 24 6
v 0.5 24 6
v -0.5 24 5
v 0.5 24 5
v -0.5 25 -3
v 0.5 25 -3
v -0.5 25 -4
v 0.5 25 -4
v -0.5 27 5
v 0.5 27 5
v -0.5 27 4
v 0.5 27 4
v -0.5 27 -2
v 0.5 27 -2
v -0.5 27 -3
v 0.5 27 -3
v -0.5 28 4
v 0.5 28 4
v -0.5 28 3
v 0.5 28 3
v -0.5 29 -1
v 0.5 29 -1
v -0.5 29 -2
v 0.5 29 -2
v -0.5 31 3
v 0.5 31 3
v -0.5 31 2
v 0.5 31 2
v -0.5 32 2
v 0.5 32 2
v -0.5 32 1
v 0.5 32 1
v -0.5 32 -0
v 0.5 32 -0
v -0.5 32 -1
v 0.5 32 -1
v -0.5 33 1
v 0.5 33 1
v -0.5 33 -0
v 0.5 33 -0

# faces
f 4/2/1 2/2/1 1/2/1
f 5/2/1 2/2/1 4/2/1
f 8/2/1 4/2/1 3/2/1
f 8/2/1 5/2/1 4/2/1
f 9/2/1 5/2/1 8/2/1
f 9/2/1 8/2/1 7/2/1
f 10/1/1 6/1/1 5/1/1
f 10/2/1 5/2/1 9/2/1
f 11/1/1 6/1/1 10/1/1
f 14/2/1 9/2/1 7/2/1
f 16/2/1 14/2/1 13/2/1
f 17/2/1 9/2/1 14/2/1
f 17/2/1 14/2/1 16/2/1
f 18/1/1 12/1/1 11/1/1
f 19/1/1 12/1/1 18/1/1
f 21/1/1 20/1/1 19/1/1
f 22/1/1 20/1/1 21/1/1
f 25/2/1 16/2/1 15/2/1
f 26/2/1 16/2/1 25/2/1
f 27/1/1 23/1/1 22/1/1
f 28/1/1 23/1/1 27/1/1
f 31/2/1 25/2/1 24/2/1
f 32/2/1 25/2/1 31/2/1
f 33/1/1 29/1/1 28/1/1
f 34/1/1 29/1/1 33/1/1
f 36/1/1 35/1/1 34/1/1
f 37/1/1 35/1/1 36/1/1
f 40/1/1 38/1/1 37/1/1
f 41/1/1 38/1/1 40/1/1
f 42/2/1 31/2/1 30/2/1
f 43/2/1 31/2/1 42/2/1
f 46/1/1 40/1/1 39/1/1
f 47/1/1 40/1/1 46/1/1
f 49/1/1 46/1/1 45/1/1
f 50/1/1 46/1/1 49/1/1
f 51/2/1 44/2/1 43/2/1
f 52/2/1 44/2/1 51/2/1
f 55/1/1 49/1/1 48/1/1
f 56/1/1 49/1/1 55/1/1
f 57/2/1 53/2/1 52/2/1
f 58/2/1 53/2/1 57/2/1
f 61/1/1 55/1/1 54/1/1
f 62/1/1 55/1/1 61/1/1
f 63/2/1 59/2/1 58/2/1
f 64/2/1 59/2/1 63/2/1
f 65/2/1 59/2/1 64/2/1
f 67/1/1 61/1/1 60/1/1
f 68/1/1 61/1/1 67/1/1
f 69/2/1 66/2/1 65/2/1
f 69/2/1 65/2/1 64/2/1
f 70/2/1 66/2/1 69/2/1
f 71/2/1 66/2/1 70/2/1
f 72/2/1 66/2/1 71/2/1
f 73/1/1 67/1/1 66/1/1
f 73/2/1 66/2/1 72/2/1
f 74/1/1 67/1/1 73/1/1
f 75/2/1 73/2/1 72/2/1
f 76/2/1 73/2/1 75/2/1
f 77/2/2 78/2/2 80/2/2
f 80/2/2 78/2/2 81/2/2
f 79/2/2 80/2/2 84/2/2
f 80/2/2 81/2/2 84/2/2
f 84/2/2 81/2/2 85/2/2
f 83/2/2 84/2/2 85/2/2
f 81/1/2 82/1/2 86/1/2
f 85/2/2 81/2/2 86/2/2
f 86/1/2 82/1/2 87/1/2
f 83/2/2 85/2/2 90/2/2
f 89/2/2 90/2/2 92/2/2
f 90/2/2 85/2/2 93/2/2
f 92/2/2 90/2/2 93/2/2
f 87/1/2 88/1/2 94/1/2
f 94/1/2 88/1/2 95/1/2
f 95/1/2 96/1/2 97/1/2
f 97/1/2 96/1/2 98/1/2
f 91/2/2 92/2/2 101/2/2
f 101/2/2 92/2/2 102/2/2
f 98/1/2 99/1/2 103/1/2
f 103/1/2 99/1/2 104/1/2
f 100/2/2 101/2/2 107/2/2
f 107/2/2 101/2/2 108/2/2
f 104/1/2 105/1/2 109/1/2
f 109/1/2 105/1/2 110/1/2
f 110/1/2 111/1/2 112/1/2
f 112/1/2 111/1/2 113/1/2
f 113/1/2 114/1/2 116/1/2
f 116/1/2 114/1/2 117/1/2
f 106/2/2 107/2/2 118/2/2
f 118/2/2 107/2/2 119/2/2
f 115/1/2 116/1/2 122/1/2
f 122/1/2 116/1/2 123/1/2
f 121/1/2 122/1/2 125/1/2
f 125/1/2 122/1/2 126/1/2
f 119/2/2 120/2/2 127/2/2
f 127/2/2 120/2/2 128/2/2
f 124/1/2 125/1/2 131/1/2
f 131/1/2 125/1/2 132/1/2
f 128/2/2 129/2/2 133/2/2
f 133/2/2 129/2/2 134/2/2
f 130/1/2 131/1/2 137/1/2
f 137/1/2 131/1/2 138/1/2
f 134/2/2 135/2/2 139/2/2
f 139/2/2 135/2/2 140/2/2
f 140/2/2 135/2/2 141/2/2
f 136/1/2 137/1/2 143/1/2
f 143/1/2 137/1/2 144/1/2
f 141/2/2 142/2/2 145/2/2
f 140/2/2 141/2/2 145/2/2
f 145/2/2 142/2/2 146/2/2
f 146/2/2 142/2/2 147/2/2
f 147/2/2 142/2/2 148/2/2
f 142/1/2 143/1/2 149/1/2
f 148/2/2 142/2/2 149/2/2
f 149/1/2 143/1/2 150/1/2
f 148/2/2 149/2/2 151/2/2
f 151/2/2 149/2/2 152/2/2
f 155/2/3 154/2/3 153/2/3
f 156/2/3 154/2/3 155/2/3
f 161/2/3 158/2/3 157/2/3
f 162/2/3 158/2/3 161/2/3
f 163/2/3 160/2/3 159/2/3
f 164/2/3 160/2/3 163/2/3
f 169/2/3 166/2/3 165/2/3
f 170/2/3 166/2/3 169/2/3
f 171/2/3 168/2/3 167/2/3
f 172/2/3 168/2/3 171/2/3
f 177/2/3 174/2/3 173/2/3
f 178/2/3 174/2/3 177/2/3
f 179/2/3 176/2/3 175/2/3
f 180/2/3 176/2/3 179/2/3
f 185/2/3 182/2/3 181/2/3
f 186/2/3 182/2/3 185/2/3
f 187/2/3 184/2/3 183/2/3
f 188/2/3 184/2/3 187/2/3
f 193/2/3 190/2/3 189/2/3
f 194/2/3 190/2/3 193/2/3
f 195/2/3 192/2/3 191/2/3
f 196/2/3 192/2/3 195/2/3
f 201/2/3 198/2/3 197/2/3
f 202/2/3 198/2/3 201/2/3
f 203/2/3 200/2/3 199/2/3
f 204/2/3 200/2/3 203/2/3
f 209/1/3 206/1/3 205/1/3
f 210/1/3 206/1/3 209/1/3
f 211/1/3 208/1/3 207/1/3
f 212/1/3 208/1/3 211/1/3
f 217/1/3 214/1/3 213/1/3
f 218/1/3 214/1/3 217/1/3
f 219/1/3 216/1/3 215/1/3
f 220/1/3 216/1/3 219/1/3
f 225/1/3 222/1/3 221/1/3
f 226/1/3 222/1/3 225/1/3
f 227/1/3 224/1/3 223/1/3
f 228/1/3 224/1/3 227/1/3
f 233/1/3 230/1/3 229/1/3
f 234/1/3 230/1/3 233/1/3
f 235/1/3 232/1/3 231/1/3
f 236/1/3 232/1/3 235/1/3
f 241/1/3 238/1/3 237/1/3
f 242/1/3 238/1/3 241/1/3
f 243/1/3 240/1/3 239/1/3
f 244/1/3 240/1/3 243/1/3
f 247/1/3 246/1/3 245/1/3
f 248/1/3 246/1/3 247/1/3
f 249/2/4 250/2/4 251/2/4
f 251/2/4 250/2/4 252/2/4
f 253/2/4 254/2/4 257/2/4
f 257/2/4 254/2/4 258/2/4
f 255/2/4 256/2/4 259/2/4
f 259/2/4 256/2/4 260/2/4
f 261/2/4 262/2/4 265/2/4
f 265/2/4 262/2/4 266/2/4
f 263/2/4 264/2/4 267/2/4
f 267/2/4 264/2/4 268/2/4
f 269/2/4 270/2/4 273/2/4
f 273/2/4 270/2/4 274/2/4
f 271/2/4 272/2/4 275/2/4
f 275/2/4 272/2/4 276/2/4
f 277/2/4 278/2/4 281/2/4
f 281/2/4 278/2/4 282/2/4
f 279/2/4 280/2/4 283/2/4
f 283/2/4 280/2/4 284/2/4
f 285/1/4 286/1/4 289/1/4
f 289/1/4 286/1/4 290/1/4
f 287/1/4 288/1/4 291/1/4
f 291/1/4 288/1/4 292/1/4
f 293/1/4 294/1/4 297/1/4
f 297/1/4 294/1/4 298/1/4
f 295/1/4 296/1/4 299/1/4
f 299/1/4 296/1/4 300/1/4
f 301/1/4 302/1/4 305/1/4
f 305/1/4 302/1/4 306/1/4
f 303/1/4 304/1/4 307/1/4
f 307/1/4 304/1/4 308/1/4
f 309/1/4 310/1/4 313/1/4
f 313/1/4 310/1/4 314/1/4
f 311/1/4 312/1/4 315/1/4
f 315/1/4 312/1/4 316/1/4
f 317/1/4 318/1/4 321/1/4
f 321/1/4 318/1/4 322/1/4
f 319/1/4 320/1/4 323/1/4
f 323/1/4 320/1/4 324/1/4
f 325/1/4 326/1/4 329/1/4
f 329/1/4 326/1/4 330/1/4
f 327/1/4 328/1/4 331/1/4
f 331/1/4 328/1/4 332/1/4
f 333/1/4 334/1/4 335/1/4
f 335/1/4 334/1/4 336/1/4
f 339/2/5 338/2/5 337/2/5
f 340/2/5 338/2/5 339/2/5
f 343/2/5 342/2/5 341/2/5
f 344/2/5 342/2/5 343/2/5
f 347/1/5 346/1/5 345/1/5
f 348/1/5 346/1/5 347/1/5
f 351/2/5 350/2/5 349/2/5
f 352/2/5 350/2/5 351/2/5
f 355/1/5 354/1/5 353/1/5
f 356/1/5 354/1/5 355/1/5
f 359/2/5 358/2/5 357/2/5
f 360/2/5 358/2/5 359/2/5
f 363/2/5 362/2/5 361/2/5
f 364/2/5 362/2/5 363/2/5
f 367/1/5 366/1/5 365/1/5
f 368/1/5 366/1/5 367/1/5
f 371/1/5 370/1/5 369/1/5
f 372/1/5 370/1/5 371/1/5
f 375/2/5 374/2/5 373/2/5
f 376/2/5 374/2/5 375/2/5
f 379/1/5 378/1/5 377/1/5
f 380/1/5 378/1/5 379/1/5
f 383/2/5 382/2/5 381/2/5
f 384/2/5 382/2/5 383/2/5
f 387/1/5 386/1/5 385/1/5
f 388/1/5 386/1/5 387/1/5
f 391/1/5 390/1/5 389/1/5
f 392/1/5 390/1/5 391/1/5
f 395/1/5 394/1/5 393/1/5
f 396/1/5 394/1/5 395/1/5
f 399/2/5 398/2/5 397/2/5
f 400/2/5 398/2/5 399/2/5
f 403/1/5 402/1/5 401/1/5
f 404/1/5 402/1/5 403/1/5
f 407/1/5 406/1/5 405/1/5
f 408/1/5 406/1/5 407/1/5
f 411/2/5 410/2/5 409/2/5
f 412/2/5 410/2/5 411/2/5
f 415/1/5 414/1/5 413/1/5
f 416/1/5 414/1/5 415/1/5
f 419/2/5 418/2/5 417/2/5
f 420/2/5 418/2/5 419/2/5
f 423/1/5 422/1/5 421/1/5
f 424/1/5 422/1/5 423/1/5
f 427/2/5 426/2/5 425/2/5
f 428/2/5 426/2/5 427/2/5
f 429/1/5 428/1/5 427/1/5
f 430/1/5 428/1/5 429/1/5
f 431/2/6 432/2/6 433/2/6
f 433/2/6 432/2/6 434/2/6
f 433/1/6 434/1/6 435/1/6
f 435/1/6 434/1/6 436/1/6
f 437/2/6 438/2/6 439/2/6
f 439/2/6 438/2/6 440/2/6
f 441/1/6 442/1/6 443/1/6
f 443/1/6 442/1/6 444/1/6
f 445/1/6 446/1/6 447/1/6
f 447/1/6 446/1/6 448/1/6
f 449/2/6 450/2/6 451/2/6
f 451/2/6 450/2/6 452/2/6
f 453/1/6 454/1/6 455/1/6
f 455/1/6 454/1/6 456/1/6
f 457/2/6 458/2/6 459/2/6
f 459/2/6 458/2/6 460/2/6
f 461/1/6 462/1/6 463/1/6
f 463/1/6 462/1/6 464/1/6
f 465/1/6 466/1/6 467/1/6
f 467/1/6 466/1/6 468/1/6
f 469/1/6 470/1/6 471/1/6
f 471/1/6 470/1/6 472/1/6
f 473/2/6 474/2/6 475/2/6
f 475/2/6 474/2/6 476/2/6
f 477/1/6 478/1/6 479/1/6
f 479/1/6 478/1/6 480/1/6
f 481/1/6 482/1/6 483/1/6
f 483/1/6 482/1/6 484/1/6
f 485/2/6 486/2/6 487/2/6
f 487/2/6 486/2/6 488/2/6
f 489/1/6 490/1/6 491/1/6
f 491/1/6 490/1/6 492/1/6
f 493/2/6 494/2/6 495/2/6
f 495/2/6 494/2/6 496/2/6
f 497/1/6 498/1/6 499/1/6
f 499/1/6 498/1/6 500/1/6
f 501/2/6 502/2/6 503/2/6
f 503/2/6 502/2/6 504/2/6
f 505/1/6 506/1/6 507/1/6
f 507/1/6 506/1/6 508/1/6
f 509/2/6 510/2/6 511/2/6
f 511/2/6 510/2/6 512/2/6
f 513/2/6 514/2/6 515/2/6
f 515/2/6 514/2/6 516/2/6
f 517/1/6 518/1/6 519/1/6
f 519/1/6 518/1/6 520/1/6
f 521/2/6 522/2/6 523/2/6
f 523/2/6 522/2/6 524/2/6
