# MagicaVoxel @ Ephtracy

# group
g zunko_Head

# material
mtllib zunko_Head.mtl
usemtl palette

# normals
vn -1 0 0
vn 1 0 0
vn 0 0 1
vn 0 0 -1
vn 0 -1 0
vn 0 1 0

# texcoords
vt 0.216797 0.5
vt 0.244141 0.5
vt 0.248047 0.5
vt 0.275391 0.5
vt 0.306641 0.5
vt 0.310547 0.5
vt 0.337891 0.5

# verts
v -5.5 2 3.5
v -5.5 2 -3.5
v -5.5 7 3.5
v -5.5 7 -3.5
v -4.5 0 4.5
v -4.5 0 2.5
v -4.5 1 2.5
v -4.5 1 1.5
v -4.5 2 3.5
v -4.5 2 1.5
v -4.5 3 -3.5
v -4.5 3 -4.5
v -4.5 7 4.5
v -4.5 7 3.5
v -4.5 7 2.5
v -4.5 7 -3.5
v -4.5 8 4.5
v -4.5 8 3.5
v -4.5 8 2.5
v -4.5 9 4.5
v -4.5 9 3.5
v -4.5 9 -4.5
v -3.5 3 -4.5
v -3.5 3 -5.5
v -3.5 6 5.5
v -3.5 6 4.5
v -3.5 7 4.5
v -3.5 7 3.5
v -3.5 8 4.5
v -3.5 8 3.5
v -3.5 8 -4.5
v -3.5 8 -5.5
v -3.5 9 5.5
v -3.5 9 4.5
v -3.5 9 3.5
v -3.5 9 -3.5
v -3.5 10 4.5
v -3.5 10 3.5
v -3.5 10 -3.5
v -2.5 2 -3.5
v -2.5 2 -4.5
v -2.5 3 -3.5
v -2.5 3 -4.5
v -1.5 6 5.5
v -1.5 6 4.5
v -1.5 7 5.5
v -1.5 7 4.5
v 2.5 6 5.5
v 2.5 6 4.5
v 2.5 7 5.5
v 2.5 7 4.5
v 3.5 0 4.5
v 3.5 0 2.5
v 3.5 1 2.5
v 3.5 1 1.5
v 3.5 2 4.5
v 3.5 2 1.5
v -3.5 0 4.5
v -3.5 0 2.5
v -3.5 1 2.5
v -3.5 1 1.5
v -3.5 2 4.5
v -3.5 2 1.5
v -2.5 6 5.5
v -2.5 6 4.5
v -2.5 7 5.5
v -2.5 7 4.5
v 1.5 6 5.5
v 1.5 6 4.5
v 1.5 7 5.5
v 1.5 7 4.5
v 2.5 2 -3.5
v 2.5 2 -4.5
v 2.5 3 -3.5
v 2.5 3 -4.5
v 3.5 3 -4.5
v 3.5 3 -5.5
v 3.5 6 5.5
v 3.5 6 4.5
v 3.5 7 4.5
v 3.5 7 3.5
v 3.5 8 4.5
v 3.5 8 3.5
v 3.5 8 -4.5
v 3.5 8 -5.5
v 3.5 9 5.5
v 3.5 9 4.5
v 3.5 9 3.5
v 3.5 9 2.5
v 3.5 9 -3.5
v 3.5 10 4.5
v 3.5 10 2.5
v 3.5 10 -3.5
v 4.5 0 4.5
v 4.5 0 2.5
v 4.5 1 2.5
v 4.5 1 1.5
v 4.5 2 3.5
v 4.5 2 1.5
v 4.5 3 -3.5
v 4.5 3 -4.5
v 4.5 7 4.5
v 4.5 7 3.5
v 4.5 7 2.5
v 4.5 7 -3.5
v 4.5 8 4.5
v 4.5 8 3.5
v 4.5 8 2.5
v 4.5 9 4.5
v 4.5 9 3.5
v 4.5 9 -4.5
v 5.5 2 3.5
v 5.5 2 -3.5
v 5.5 7 3.5
v 5.5 7 -3.5
v -3.5 6 5.5
v -3.5 9 5.5
v -2.5 6 5.5
v -2.5 7 5.5
v -1.5 6 5.5
v -1.5 7 5.5
v 1.5 6 5.5
v 1.5 7 5.5
v 2.5 6 5.5
v 2.5 7 5.5
v 3.5 6 5.5
v 3.5 9 5.5
v -4.5 0 4.5
v -4.5 7 4.5
v -4.5 8 4.5
v -4.5 9 4.5
v -3.5 0 4.5
v -3.5 2 4.5
v -3.5 3 4.5
v -3.5 4 4.5
v -3.5 6 4.5
v -3.5 7 4.5
v -3.5 8 4.5
v -3.5 9 4.5
v -3.5 10 4.5
v -2.5 3 4.5
v -2.5 4 4.5
v -2.5 5 4.5
v -2.5 6 4.5
v -2.5 7 4.5
v -1.5 4 4.5
v -1.5 5 4.5
v -1.5 6 4.5
v -1.5 7 4.5
v -0.5 2 4.5
v -0.5 3 4.5
v 0.5 2 4.5
v 0.5 3 4.5
v 1.5 4 4.5
v 1.5 5 4.5
v 1.5 6 4.5
v 1.5 7 4.5
v 2.5 3 4.5
v 2.5 4 4.5
v 2.5 5 4.5
v 2.5 6 4.5
v 2.5 7 4.5
v 3.5 0 4.5
v 3.5 2 4.5
v 3.5 3 4.5
v 3.5 4 4.5
v 3.5 6 4.5
v 3.5 7 4.5
v 3.5 8 4.5
v 3.5 9 4.5
v 3.5 10 4.5
v 4.5 0 4.5
v 4.5 7 4.5
v 4.5 8 4.5
v 4.5 9 4.5
v -5.5 2 3.5
v -5.5 7 3.5
v -4.5 2 3.5
v -4.5 7 3.5
v -4.5 8 3.5
v -3.5 7 3.5
v -3.5 8 3.5
v 3.5 7 3.5
v 3.5 8 3.5
v 4.5 2 3.5
v 4.5 7 3.5
v 4.5 8 3.5
v 5.5 2 3.5
v 5.5 7 3.5
v -4.5 0 2.5
v -4.5 1 2.5
v -3.5 0 2.5
v -3.5 1 2.5
v 3.5 0 2.5
v 3.5 1 2.5
v 4.5 0 2.5
v 4.5 1 2.5
v -4.5 1 1.5
v -4.5 2 1.5
v -3.5 1 1.5
v -3.5 2 1.5
v 3.5 1 1.5
v 3.5 2 1.5
v 4.5 1 1.5
v 4.5 2 1.5
v -5.5 2 -3.5
v -5.5 7 -3.5
v -4.5 3 -3.5
v -4.5 7 -3.5
v -3.5 2 -3.5
v -3.5 3 -3.5
v -3.5 9 -3.5
v -3.5 10 -3.5
v -2.5 2 -3.5
v -2.5 3 -3.5
v 2.5 2 -3.5
v 2.5 3 -3.5
v 3.5 2 -3.5
v 3.5 3 -3.5
v 3.5 9 -3.5
v 3.5 10 -3.5
v 4.5 3 -3.5
v 4.5 7 -3.5
v 5.5 2 -3.5
v 5.5 7 -3.5
v -4.5 3 -4.5
v -4.5 9 -4.5
v -3.5 3 -4.5
v -3.5 8 -4.5
v -2.5 2 -4.5
v -2.5 3 -4.5
v 2.5 2 -4.5
v 2.5 3 -4.5
v 3.5 3 -4.5
v 3.5 8 -4.5
v 4.5 3 -4.5
v 4.5 9 -4.5
v -3.5 3 -5.5
v -3.5 8 -5.5
v 3.5 3 -5.5
v 3.5 8 -5.5
v -4.5 0 4.5
v -3.5 0 4.5
v 3.5 0 4.5
v 4.5 0 4.5
v -4.5 0 2.5
v -3.5 0 2.5
v 3.5 0 2.5
v 4.5 0 2.5
v -4.5 1 2.5
v -3.5 1 2.5
v 3.5 1 2.5
v 4.5 1 2.5
v -4.5 1 1.5
v -3.5 1 1.5
v 3.5 1 1.5
v 4.5 1 1.5
v -3.5 2 4.5
v -0.5 2 4.5
v 0.5 2 4.5
v 3.5 2 4.5
v -5.5 2 3.5
v -4.5 2 3.5
v -0.5 2 3.5
v 0.5 2 3.5
v 4.5 2 3.5
v 5.5 2 3.5
v -4.5 2 1.5
v -3.5 2 1.5
v 3.5 2 1.5
v 4.5 2 1.5
v -5.5 2 -3.5
v -3.5 2 -3.5
v -2.5 2 -3.5
v 2.5 2 -3.5
v 3.5 2 -3.5
v 5.5 2 -3.5
v -2.5 2 -4.5
v 2.5 2 -4.5
v -4.5 3 -3.5
v -3.5 3 -3.5
v -2.5 3 -3.5
v 2.5 3 -3.5
v 3.5 3 -3.5
v 4.5 3 -3.5
v -4.5 3 -4.5
v -3.5 3 -4.5
v -2.5 3 -4.5
v 2.5 3 -4.5
v 3.5 3 -4.5
v 4.5 3 -4.5
v -3.5 3 -5.5
v 3.5 3 -5.5
v -3.5 6 5.5
v -2.5 6 5.5
v -1.5 6 5.5
v 1.5 6 5.5
v 2.5 6 5.5
v 3.5 6 5.5
v -3.5 6 4.5
v -2.5 6 4.5
v -1.5 6 4.5
v 1.5 6 4.5
v 2.5 6 4.5
v 3.5 6 4.5
v -2.5 7 5.5
v -1.5 7 5.5
v 1.5 7 5.5
v 2.5 7 5.5
v -2.5 7 4.5
v -1.5 7 4.5
v 1.5 7 4.5
v 2.5 7 4.5
v -4.5 8 4.5
v -3.5 8 4.5
v 3.5 8 4.5
v 4.5 8 4.5
v -4.5 8 3.5
v -3.5 8 3.5
v 3.5 8 3.5
v 4.5 8 3.5
v -4.5 7 4.5
v -3.5 7 4.5
v 3.5 7 4.5
v 4.5 7 4.5
v -5.5 7 3.5
v -4.5 7 3.5
v -3.5 7 3.5
v 3.5 7 3.5
v 4.5 7 3.5
v 5.5 7 3.5
v -4.5 7 2.5
v 4.5 7 2.5
v -5.5 7 -3.5
v -4.5 7 -3.5
v 4.5 7 -3.5
v 5.5 7 -3.5
v -3.5 8 -4.5
v 3.5 8 -4.5
v -3.5 8 -5.5
v 3.5 8 -5.5
v -3.5 9 5.5
v 3.5 9 5.5
v -4.5 9 4.5
v -3.5 9 4.5
v 3.5 9 4.5
v 4.5 9 4.5
v -4.5 9 3.5
v -3.5 9 3.5
v 3.5 9 3.5
v 4.5 9 3.5
v 3.5 9 2.5
v -3.5 9 -3.5
v 3.5 9 -3.5
v -4.5 9 -4.5
v 4.5 9 -4.5
v -3.5 10 4.5
v 3.5 10 4.5
v -3.5 10 3.5
v 0.5 10 3.5
v 0.5 10 2.5
v 3.5 10 2.5
v -3.5 10 -3.5
v 3.5 10 -3.5

# faces
f 3/4/1 2/4/1 1/4/1
f 4/4/1 2/4/1 3/4/1
f 7/4/1 6/4/1 5/4/1
f 9/4/1 7/4/1 5/4/1
f 9/4/1 8/4/1 7/4/1
f 10/4/1 8/4/1 9/4/1
f 13/4/1 9/4/1 5/4/1
f 14/4/1 9/4/1 13/4/1
f 16/4/1 12/4/1 11/4/1
f 18/2/1 15/2/1 14/2/1
f 19/4/1 16/4/1 15/4/1
f 19/2/1 15/2/1 18/2/1
f 20/2/1 18/2/1 17/2/1
f 21/4/1 19/4/1 18/4/1
f 21/2/1 18/2/1 20/2/1
f 22/4/1 12/4/1 16/4/1
f 22/4/1 19/4/1 21/4/1
f 22/4/1 16/4/1 19/4/1
f 27/4/1 26/4/1 25/4/1
f 29/4/1 27/4/1 25/4/1
f 29/4/1 28/4/1 27/4/1
f 30/4/1 28/4/1 29/4/1
f 31/4/1 24/4/1 23/4/1
f 32/4/1 24/4/1 31/4/1
f 33/4/1 29/4/1 25/4/1
f 34/4/1 29/4/1 33/4/1
f 37/2/1 35/2/1 34/2/1
f 38/4/1 36/4/1 35/4/1
f 38/2/1 35/2/1 37/2/1
f 39/4/1 36/4/1 38/4/1
f 42/4/1 41/4/1 40/4/1
f 43/4/1 41/4/1 42/4/1
f 46/4/1 45/4/1 44/4/1
f 47/4/1 45/4/1 46/4/1
f 50/4/1 49/4/1 48/4/1
f 51/4/1 49/4/1 50/4/1
f 54/4/1 53/4/1 52/4/1
f 56/4/1 54/4/1 52/4/1
f 56/4/1 55/4/1 54/4/1
f 57/4/1 55/4/1 56/4/1
f 58/4/2 59/4/2 60/4/2
f 58/4/2 60/4/2 62/4/2
f 60/4/2 61/4/2 62/4/2
f 62/4/2 61/4/2 63/4/2
f 64/4/2 65/4/2 66/4/2
f 66/4/2 65/4/2 67/4/2
f 68/4/2 69/4/2 70/4/2
f 70/4/2 69/4/2 71/4/2
f 72/4/2 73/4/2 74/4/2
f 74/4/2 73/4/2 75/4/2
f 78/4/2 79/4/2 80/4/2
f 78/4/2 80/4/2 82/4/2
f 80/4/2 81/4/2 82/4/2
f 82/4/2 81/4/2 83/4/2
f 76/4/2 77/4/2 84/4/2
f 84/4/2 77/4/2 85/4/2
f 78/4/2 82/4/2 86/4/2
f 86/4/2 82/4/2 87/4/2
f 87/2/2 88/2/2 91/2/2
f 88/2/2 89/2/2 91/2/2
f 89/4/2 90/4/2 92/4/2
f 91/2/2 89/2/2 92/2/2
f 92/4/2 90/4/2 93/4/2
f 94/4/2 95/4/2 96/4/2
f 94/4/2 96/4/2 98/4/2
f 96/4/2 97/4/2 98/4/2
f 98/4/2 97/4/2 99/4/2
f 94/4/2 98/4/2 102/4/2
f 102/4/2 98/4/2 103/4/2
f 100/4/2 101/4/2 105/4/2
f 103/2/2 104/2/2 107/2/2
f 104/4/2 105/4/2 108/4/2
f 107/2/2 104/2/2 108/2/2
f 106/2/2 107/2/2 109/2/2
f 107/4/2 108/4/2 110/4/2
f 109/2/2 107/2/2 110/2/2
f 105/4/2 101/4/2 111/4/2
f 110/4/2 108/4/2 111/4/2
f 108/4/2 105/4/2 111/4/2
f 112/4/2 113/4/2 114/4/2
f 114/4/2 113/4/2 115/4/2
f 118/4/3 117/4/3 116/4/3
f 119/4/3 117/4/3 118/4/3
f 121/4/3 117/4/3 119/4/3
f 122/4/3 121/4/3 120/4/3
f 123/4/3 117/4/3 121/4/3
f 123/4/3 121/4/3 122/4/3
f 125/4/3 117/4/3 123/4/3
f 126/4/3 125/4/3 124/4/3
f 127/4/3 117/4/3 125/4/3
f 127/4/3 125/4/3 126/4/3
f 132/4/3 129/4/3 128/4/3
f 133/4/3 129/4/3 132/4/3
f 134/4/3 129/4/3 133/4/3
f 135/4/3 129/4/3 134/4/3
f 136/4/3 129/4/3 135/4/3
f 137/4/3 129/4/3 136/4/3
f 138/2/3 131/2/3 130/2/3
f 139/2/3 131/2/3 138/2/3
f 141/5/3 134/5/3 133/5/3
f 141/1/3 135/1/3 134/1/3
f 142/5/3 136/5/3 135/5/3
f 142/1/3 135/1/3 141/1/3
f 143/5/3 136/5/3 142/5/3
f 144/5/3 136/5/3 143/5/3
f 146/5/3 142/5/3 141/5/3
f 146/6/3 143/6/3 142/6/3
f 147/7/3 144/7/3 143/7/3
f 147/6/3 143/6/3 146/6/3
f 148/5/3 145/5/3 144/5/3
f 148/7/3 144/7/3 147/7/3
f 149/5/3 145/5/3 148/5/3
f 150/5/3 141/5/3 133/5/3
f 150/5/3 147/5/3 146/5/3
f 150/5/3 148/5/3 147/5/3
f 150/5/3 146/5/3 141/5/3
f 151/5/3 148/5/3 150/5/3
f 152/3/3 151/3/3 150/3/3
f 153/5/3 148/5/3 151/5/3
f 153/3/3 151/3/3 152/3/3
f 154/5/3 153/5/3 152/5/3
f 154/5/3 148/5/3 153/5/3
f 155/5/3 148/5/3 154/5/3
f 156/5/3 148/5/3 155/5/3
f 158/5/3 154/5/3 152/5/3
f 159/6/3 155/6/3 154/6/3
f 159/5/3 154/5/3 158/5/3
f 160/7/3 156/7/3 155/7/3
f 160/6/3 155/6/3 159/6/3
f 161/5/3 157/5/3 156/5/3
f 161/7/3 156/7/3 160/7/3
f 162/5/3 157/5/3 161/5/3
f 164/5/3 158/5/3 152/5/3
f 165/1/3 159/1/3 158/1/3
f 165/5/3 158/5/3 164/5/3
f 166/5/3 160/5/3 159/5/3
f 166/1/3 159/1/3 165/1/3
f 166/5/3 161/5/3 160/5/3
f 167/5/3 161/5/3 166/5/3
f 170/2/3 140/2/3 139/2/3
f 171/2/3 140/2/3 170/2/3
f 172/4/3 166/4/3 165/4/3
f 172/4/3 168/4/3 167/4/3
f 172/4/3 165/4/3 164/4/3
f 172/4/3 167/4/3 166/4/3
f 172/4/3 164/4/3 163/4/3
f 173/4/3 168/4/3 172/4/3
f 174/2/3 170/2/3 169/2/3
f 175/2/3 170/2/3 174/2/3
f 178/4/3 177/4/3 176/4/3
f 179/4/3 177/4/3 178/4/3
f 181/2/3 180/2/3 179/2/3
f 182/2/3 180/2/3 181/2/3
f 186/2/3 184/2/3 183/2/3
f 187/2/3 184/2/3 186/2/3
f 188/4/3 186/4/3 185/4/3
f 189/4/3 186/4/3 188/4/3
f 190/4/4 191/4/4 192/4/4
f 192/4/4 191/4/4 193/4/4
f 194/4/4 195/4/4 196/4/4
f 196/4/4 195/4/4 197/4/4
f 198/4/4 199/4/4 200/4/4
f 200/4/4 199/4/4 201/4/4
f 202/4/4 203/4/4 204/4/4
f 204/4/4 203/4/4 205/4/4
f 206/4/4 207/4/4 208/4/4
f 208/4/4 207/4/4 209/4/4
f 206/4/4 208/4/4 210/4/4
f 210/4/4 208/4/4 211/4/4
f 210/5/4 211/5/4 214/5/4
f 214/5/4 211/5/4 215/5/4
f 216/5/4 217/5/4 218/5/4
f 218/5/4 217/5/4 219/5/4
f 212/4/4 213/4/4 220/4/4
f 220/4/4 213/4/4 221/4/4
f 218/4/4 219/4/4 222/4/4
f 218/4/4 222/4/4 224/4/4
f 222/4/4 223/4/4 224/4/4
f 224/4/4 223/4/4 225/4/4
f 226/4/4 227/4/4 228/4/4
f 228/4/4 227/4/4 229/4/4
f 230/4/4 231/4/4 232/4/4
f 232/4/4 231/4/4 233/4/4
f 229/4/4 227/4/4 235/4/4
f 234/4/4 235/4/4 236/4/4
f 235/4/4 227/4/4 237/4/4
f 236/4/4 235/4/4 237/4/4
f 238/4/4 239/4/4 240/4/4
f 240/4/4 239/4/4 241/4/4
f 246/4/5 243/4/5 242/4/5
f 247/4/5 243/4/5 246/4/5
f 248/4/5 245/4/5 244/4/5
f 249/4/5 245/4/5 248/4/5
f 254/4/5 251/4/5 250/4/5
f 255/4/5 251/4/5 254/4/5
f 256/4/5 253/4/5 252/4/5
f 257/4/5 253/4/5 256/4/5
f 264/5/5 259/5/5 258/5/5
f 264/3/5 260/3/5 259/3/5
f 265/5/5 261/5/5 260/5/5
f 265/3/5 260/3/5 264/3/5
f 268/4/5 263/4/5 262/4/5
f 269/5/5 264/5/5 258/5/5
f 269/5/5 265/5/5 264/5/5
f 270/5/5 261/5/5 265/5/5
f 270/5/5 265/5/5 269/5/5
f 271/4/5 267/4/5 266/4/5
f 272/4/5 268/4/5 262/4/5
f 272/4/5 269/4/5 268/4/5
f 273/5/5 270/5/5 269/5/5
f 273/4/5 269/4/5 272/4/5
f 274/5/5 270/5/5 273/5/5
f 275/5/5 270/5/5 274/5/5
f 276/4/5 271/4/5 270/4/5
f 276/5/5 270/5/5 275/5/5
f 277/4/5 267/4/5 271/4/5
f 277/4/5 271/4/5 276/4/5
f 278/4/5 275/4/5 274/4/5
f 279/4/5 275/4/5 278/4/5
f 286/4/5 281/4/5 280/4/5
f 286/4/5 282/4/5 281/4/5
f 287/4/5 282/4/5 286/4/5
f 288/4/5 282/4/5 287/4/5
f 289/4/5 285/4/5 284/4/5
f 289/4/5 284/4/5 283/4/5
f 290/4/5 285/4/5 289/4/5
f 291/4/5 285/4/5 290/4/5
f 292/4/5 288/4/5 287/4/5
f 292/4/5 290/4/5 289/4/5
f 292/4/5 289/4/5 288/4/5
f 293/4/5 290/4/5 292/4/5
f 300/4/5 295/4/5 294/4/5
f 301/4/5 295/4/5 300/4/5
f 302/4/5 297/4/5 296/4/5
f 303/4/5 297/4/5 302/4/5
f 304/4/5 299/4/5 298/4/5
f 305/4/5 299/4/5 304/4/5
f 310/4/5 307/4/5 306/4/5
f 311/4/5 307/4/5 310/4/5
f 312/4/5 309/4/5 308/4/5
f 313/4/5 309/4/5 312/4/5
f 318/2/5 315/2/5 314/2/5
f 319/2/5 315/2/5 318/2/5
f 320/2/5 317/2/5 316/2/5
f 321/2/5 317/2/5 320/2/5
f 322/4/6 323/4/6 327/4/6
f 327/4/6 323/4/6 328/4/6
f 324/4/6 325/4/6 329/4/6
f 329/4/6 325/4/6 330/4/6
f 326/4/6 327/4/6 332/4/6
f 330/4/6 331/4/6 333/4/6
f 326/4/6 332/4/6 334/4/6
f 334/4/6 332/4/6 335/4/6
f 333/4/6 331/4/6 336/4/6
f 336/4/6 331/4/6 337/4/6
f 338/4/6 339/4/6 340/4/6
f 340/4/6 339/4/6 341/4/6
f 342/4/6 343/4/6 345/4/6
f 345/4/6 343/4/6 346/4/6
f 344/2/6 345/2/6 348/2/6
f 348/2/6 345/2/6 349/2/6
f 346/2/6 347/2/6 350/2/6
f 350/2/6 347/2/6 351/2/6
f 350/4/6 351/4/6 352/4/6
f 348/4/6 349/4/6 353/4/6
f 352/4/6 351/4/6 354/4/6
f 348/4/6 353/4/6 355/4/6
f 353/4/6 354/4/6 355/4/6
f 354/4/6 351/4/6 356/4/6
f 355/4/6 354/4/6 356/4/6
f 357/2/6 358/2/6 359/2/6
f 359/2/6 358/2/6 360/2/6
f 359/4/6 360/4/6 361/4/6
f 360/2/6 358/2/6 361/2/6
f 361/2/6 358/2/6 362/2/6
f 359/4/6 361/4/6 363/4/6
f 361/4/6 362/4/6 363/4/6
f 363/4/6 362/4/6 364/4/6
