# MagicaVoxel @ Ephtracy

# group
g Moyou2

# material
mtllib Moyou2.mtl
usemtl palette

# normals
vn -1 0 0
vn 1 0 0
vn 0 0 1
vn 0 0 -1
vn 0 -1 0
vn 0 1 0

# texcoords
vt 0.333984 0.5
vt 0.337891 0.5

# verts
v -8 0 8
v -8 0 -8
v -8 11 8
v -8 11 -8
v -8 15 8
v -8 15 7
v -8 15 -7
v -8 15 -8
v -8 16 7
v -8 16 -7
v -7 15 8
v -7 15 7
v -7 15 -7
v -7 15 -8
v -7 16 8
v -7 16 7
v -7 16 -7
v -7 16 -8
v 7 15 8
v 7 15 7
v 7 15 -7
v 7 15 -8
v 7 16 8
v 7 16 7
v 7 16 -7
v 7 16 -8
v 8 0 8
v 8 0 -8
v 8 11 8
v 8 11 -8
v 8 15 8
v 8 15 7
v 8 15 -7
v 8 15 -8
v 8 16 7
v 8 16 -7
v -8 0 8
v -8 11 8
v -8 15 8
v -7 11 8
v -7 12 8
v -7 15 8
v -7 16 8
v -4 11 8
v -4 12 8
v -1 11 8
v -1 12 8
v 2 11 8
v 2 12 8
v 4 11 8
v 4 12 8
v 6 11 8
v 6 12 8
v 7 15 8
v 7 16 8
v 8 0 8
v 8 11 8
v 8 15 8
v -8 15 7
v -8 16 7
v -7 15 7
v -7 16 7
v 7 15 7
v 7 16 7
v 8 15 7
v 8 16 7
v -8 15 -7
v -8 16 -7
v -7 15 -7
v -7 16 -7
v 7 15 -7
v 7 16 -7
v 8 15 -7
v 8 16 -7
v -8 0 -8
v -8 11 -8
v -8 15 -8
v -7 15 -8
v -7 16 -8
v 7 15 -8
v 7 16 -8
v 8 0 -8
v 8 11 -8
v 8 15 -8
v -8 0 8
v 8 0 8
v -8 0 -8
v 8 0 -8
v -8 15 8
v -7 15 8
v 7 15 8
v 8 15 8
v -8 15 7
v -7 15 7
v 7 15 7
v 8 15 7
v -8 15 -7
v -7 15 -7
v 7 15 -7
v 8 15 -7
v -8 15 -8
v -7 15 -8
v 7 15 -8
v 8 15 -8
v -7 16 8
v 7 16 8
v -8 16 7
v -7 16 7
v 7 16 7
v 8 16 7
v -8 16 -7
v -7 16 -7
v 7 16 -7
v 8 16 -7
v -7 16 -8
v 7 16 -8

# faces
f 3/1/1 2/1/1 1/1/1
f 4/1/1 2/1/1 3/1/1
f 5/2/1 4/2/1 3/2/1
f 6/2/1 4/2/1 5/2/1
f 7/2/1 4/2/1 6/2/1
f 8/2/1 4/2/1 7/2/1
f 9/2/1 7/2/1 6/2/1
f 10/2/1 7/2/1 9/2/1
f 15/2/1 12/2/1 11/2/1
f 16/2/1 12/2/1 15/2/1
f 17/2/1 14/2/1 13/2/1
f 18/2/1 14/2/1 17/2/1
f 19/2/2 20/2/2 23/2/2
f 23/2/2 20/2/2 24/2/2
f 21/2/2 22/2/2 25/2/2
f 25/2/2 22/2/2 26/2/2
f 27/1/2 28/1/2 29/1/2
f 29/1/2 28/1/2 30/1/2
f 29/2/2 30/2/2 31/2/2
f 31/2/2 30/2/2 32/2/2
f 32/2/2 30/2/2 33/2/2
f 33/2/2 30/2/2 34/2/2
f 32/2/2 33/2/2 35/2/2
f 35/2/2 33/2/2 36/2/2
f 40/1/3 38/1/3 37/1/3
f 40/2/3 39/2/3 38/2/3
f 41/2/3 39/2/3 40/2/3
f 42/2/3 39/2/3 41/2/3
f 44/1/3 40/1/3 37/1/3
f 44/1/3 41/1/3 40/1/3
f 45/2/3 43/2/3 42/2/3
f 45/1/3 41/1/3 44/1/3
f 45/2/3 42/2/3 41/2/3
f 46/1/3 44/1/3 37/1/3
f 46/2/3 45/2/3 44/2/3
f 47/2/3 43/2/3 45/2/3
f 47/2/3 45/2/3 46/2/3
f 48/1/3 46/1/3 37/1/3
f 48/1/3 47/1/3 46/1/3
f 49/2/3 43/2/3 47/2/3
f 49/1/3 47/1/3 48/1/3
f 50/1/3 48/1/3 37/1/3
f 50/2/3 49/2/3 48/2/3
f 51/2/3 43/2/3 49/2/3
f 51/2/3 49/2/3 50/2/3
f 52/1/3 50/1/3 37/1/3
f 52/1/3 51/1/3 50/1/3
f 53/2/3 43/2/3 51/2/3
f 53/1/3 51/1/3 52/1/3
f 54/2/3 53/2/3 52/2/3
f 54/2/3 43/2/3 53/2/3
f 55/2/3 43/2/3 54/2/3
f 56/1/3 52/1/3 37/1/3
f 57/2/3 54/2/3 52/2/3
f 57/1/3 52/1/3 56/1/3
f 58/2/3 54/2/3 57/2/3
f 61/2/3 60/2/3 59/2/3
f 62/2/3 60/2/3 61/2/3
f 65/2/3 64/2/3 63/2/3
f 66/2/3 64/2/3 65/2/3
f 67/2/4 68/2/4 69/2/4
f 69/2/4 68/2/4 70/2/4
f 71/2/4 72/2/4 73/2/4
f 73/2/4 72/2/4 74/2/4
f 76/2/4 77/2/4 78/2/4
f 76/2/4 78/2/4 80/2/4
f 78/2/4 79/2/4 80/2/4
f 80/2/4 79/2/4 81/2/4
f 75/1/4 76/1/4 82/1/4
f 76/2/4 80/2/4 83/2/4
f 82/1/4 76/1/4 83/1/4
f 83/2/4 80/2/4 84/2/4
f 87/1/5 86/1/5 85/1/5
f 88/1/5 86/1/5 87/1/5
f 89/2/6 90/2/6 93/2/6
f 93/2/6 90/2/6 94/2/6
f 91/2/6 92/2/6 95/2/6
f 95/2/6 92/2/6 96/2/6
f 97/2/6 98/2/6 101/2/6
f 101/2/6 98/2/6 102/2/6
f 99/2/6 100/2/6 103/2/6
f 103/2/6 100/2/6 104/2/6
f 105/2/6 106/2/6 108/2/6
f 108/2/6 106/2/6 109/2/6
f 107/2/6 108/2/6 111/2/6
f 109/2/6 110/2/6 111/2/6
f 108/2/6 109/2/6 111/2/6
f 111/2/6 110/2/6 112/2/6
f 112/2/6 110/2/6 113/2/6
f 113/2/6 110/2/6 114/2/6
f 112/2/6 113/2/6 115/2/6
f 115/2/6 113/2/6 116/2/6
