# MagicaVoxel @ Ephtracy

# group
g Moyou4

# material
mtllib Moyou4.mtl
usemtl palette

# normals
vn -1 0 0
vn 1 0 0
vn 0 0 1
vn 0 0 -1
vn 0 -1 0
vn 0 1 0

# texcoords
vt 0.333984 0.5
vt 0.337891 0.5

# verts
v -8 0 8
v -8 0 -8
v -8 11 8
v -8 11 -8
v -8 15 8
v -8 15 7
v -8 15 6
v -8 15 5
v -8 15 4
v -8 15 3
v -8 15 2
v -8 15 1
v -8 15 -0
v -8 15 -1
v -8 15 -2
v -8 15 -3
v -8 15 -4
v -8 15 -5
v -8 15 -6
v -8 15 -7
v -8 16 7
v -8 16 6
v -8 16 5
v -8 16 4
v -8 16 3
v -8 16 2
v -8 16 1
v -8 16 -0
v -8 16 -1
v -8 16 -2
v -8 16 -3
v -8 16 -4
v -8 16 -5
v -8 16 -6
v -8 16 -7
v -8 16 -8
v -7 15 8
v -7 15 7
v -7 15 6
v -7 15 5
v -7 15 4
v -7 15 3
v -7 15 2
v -7 15 1
v -7 15 -0
v -7 15 -1
v -7 15 -2
v -7 15 -3
v -7 15 -4
v -7 15 -5
v -7 15 -6
v -7 15 -7
v -7 16 8
v -7 16 7
v -7 16 6
v -7 16 5
v -7 16 4
v -7 16 3
v -7 16 2
v -7 16 1
v -7 16 -0
v -7 16 -1
v -7 16 -2
v -7 16 -3
v -7 16 -4
v -7 16 -5
v -7 16 -6
v -7 16 -7
v -6 15 -7
v -6 15 -8
v -6 16 -7
v -6 16 -8
v -5 15 8
v -5 15 7
v -5 16 8
v -5 16 7
v -4 15 -7
v -4 15 -8
v -4 16 -7
v -4 16 -8
v -3 15 8
v -3 15 7
v -3 16 8
v -3 16 7
v -2 15 -7
v -2 15 -8
v -2 16 -7
v -2 16 -8
v -1 15 8
v -1 15 7
v -1 16 8
v -1 16 7
v 0 15 -7
v 0 15 -8
v 0 16 -7
v 0 16 -8
v 1 15 8
v 1 15 7
v 1 16 8
v 1 16 7
v 2 15 -7
v 2 15 -8
v 2 16 -7
v 2 16 -8
v 3 15 8
v 3 15 7
v 3 16 8
v 3 16 7
v 4 15 -7
v 4 15 -8
v 4 16 -7
v 4 16 -8
v 5 15 8
v 5 15 7
v 5 16 8
v 5 16 7
v 6 15 -7
v 6 15 -8
v 6 16 -7
v 6 16 -8
v 7 15 8
v 7 15 7
v 7 16 8
v 7 16 7
v -7 15 -7
v -7 15 -8
v -7 16 -7
v -7 16 -8
v -6 15 8
v -6 15 7
v -6 16 8
v -6 16 7
v -5 15 -7
v -5 15 -8
v -5 16 -7
v -5 16 -8
v -4 15 8
v -4 15 7
v -4 16 8
v -4 16 7
v -3 15 -7
v -3 15 -8
v -3 16 -7
v -3 16 -8
v -2 15 8
v -2 15 7
v -2 16 8
v -2 16 7
v -1 15 -7
v -1 15 -8
v -1 16 -7
v -1 16 -8
v 0 15 8
v 0 15 7
v 0 16 8
v 0 16 7
v 1 15 -7
v 1 15 -8
v 1 16 -7
v 1 16 -8
v 2 15 8
v 2 15 7
v 2 16 8
v 2 16 7
v 3 15 -7
v 3 15 -8
v 3 16 -7
v 3 16 -8
v 4 15 8
v 4 15 7
v 4 16 8
v 4 16 7
v 5 15 -7
v 5 15 -8
v 5 16 -7
v 5 16 -8
v 6 15 8
v 6 15 7
v 6 16 8
v 6 16 7
v 7 15 7
v 7 15 6
v 7 15 5
v 7 15 4
v 7 15 3
v 7 15 2
v 7 15 1
v 7 15 -0
v 7 15 -1
v 7 15 -2
v 7 15 -3
v 7 15 -4
v 7 15 -5
v 7 15 -6
v 7 15 -7
v 7 15 -8
v 7 16 7
v 7 16 6
v 7 16 5
v 7 16 4
v 7 16 3
v 7 16 2
v 7 16 1
v 7 16 -0
v 7 16 -1
v 7 16 -2
v 7 16 -3
v 7 16 -4
v 7 16 -5
v 7 16 -6
v 7 16 -7
v 7 16 -8
v 8 0 8
v 8 0 -8
v 8 11 8
v 8 11 -8
v 8 15 7
v 8 15 6
v 8 15 5
v 8 15 4
v 8 15 3
v 8 15 2
v 8 15 1
v 8 15 -0
v 8 15 -1
v 8 15 -2
v 8 15 -3
v 8 15 -4
v 8 15 -5
v 8 15 -6
v 8 15 -7
v 8 15 -8
v 8 16 8
v 8 16 7
v 8 16 6
v 8 16 5
v 8 16 4
v 8 16 3
v 8 16 2
v 8 16 1
v 8 16 -0
v 8 16 -1
v 8 16 -2
v 8 16 -3
v 8 16 -4
v 8 16 -5
v 8 16 -6
v 8 16 -7
v -8 0 8
v -8 11 8
v -8 15 8
v -7 11 8
v -7 12 8
v -7 15 8
v -7 16 8
v -6 15 8
v -6 16 8
v -5 15 8
v -5 16 8
v -4 11 8
v -4 12 8
v -4 15 8
v -4 16 8
v -3 15 8
v -3 16 8
v -2 15 8
v -2 16 8
v -1 11 8
v -1 12 8
v -1 15 8
v -1 16 8
v 0 15 8
v 0 16 8
v 1 15 8
v 1 16 8
v 2 11 8
v 2 12 8
v 2 15 8
v 2 16 8
v 3 15 8
v 3 16 8
v 4 11 8
v 4 12 8
v 4 15 8
v 4 16 8
v 5 15 8
v 5 16 8
v 6 11 8
v 6 12 8
v 6 15 8
v 6 16 8
v 7 15 8
v 7 16 8
v 8 0 8
v 8 11 8
v 8 16 8
v -8 15 7
v -8 16 7
v -7 15 7
v -7 16 7
v -6 15 7
v -6 16 7
v -5 15 7
v -5 16 7
v -4 15 7
v -4 16 7
v -3 15 7
v -3 16 7
v -2 15 7
v -2 16 7
v -1 15 7
v -1 16 7
v 0 15 7
v 0 16 7
v 1 15 7
v 1 16 7
v 2 15 7
v 2 16 7
v 3 15 7
v 3 16 7
v 4 15 7
v 4 16 7
v 5 15 7
v 5 16 7
v 6 15 7
v 6 16 7
v 7 15 7
v 7 16 7
v 7 15 6
v 7 16 6
v 8 15 6
v 8 16 6
v -8 15 5
v -8 16 5
v -7 15 5
v -7 16 5
v 7 15 4
v 7 16 4
v 8 15 4
v 8 16 4
v -8 15 3
v -8 16 3
v -7 15 3
v -7 16 3
v 7 15 2
v 7 16 2
v 8 15 2
v 8 16 2
v -8 15 1
v -8 16 1
v -7 15 1
v -7 16 1
v 7 15 -0
v 7 16 -0
v 8 15 -0
v 8 16 -0
v -8 15 -1
v -8 16 -1
v -7 15 -1
v -7 16 -1
v 7 15 -2
v 7 16 -2
v 8 15 -2
v 8 16 -2
v -8 15 -3
v -8 16 -3
v -7 15 -3
v -7 16 -3
v 7 15 -4
v 7 16 -4
v 8 15 -4
v 8 16 -4
v -8 15 -5
v -8 16 -5
v -7 15 -5
v -7 16 -5
v 7 15 -6
v 7 16 -6
v 8 15 -6
v 8 16 -6
v -8 15 -7
v -8 16 -7
v -7 15 -7
v -7 16 -7
v 7 15 7
v 7 16 7
v 8 15 7
v 8 16 7
v -8 15 6
v -8 16 6
v -7 15 6
v -7 16 6
v 7 15 5
v 7 16 5
v 8 15 5
v 8 16 5
v -8 15 4
v -8 16 4
v -7 15 4
v -7 16 4
v 7 15 3
v 7 16 3
v 8 15 3
v 8 16 3
v -8 15 2
v -8 16 2
v -7 15 2
v -7 16 2
v 7 15 1
v 7 16 1
v 8 15 1
v 8 16 1
v -8 15 -0
v -8 16 -0
v -7 15 -0
v -7 16 -0
v 7 15 -1
v 7 16 -1
v 8 15 -1
v 8 16 -1
v -8 15 -2
v -8 16 -2
v -7 15 -2
v -7 16 -2
v 7 15 -3
v 7 16 -3
v 8 15 -3
v 8 16 -3
v -8 15 -4
v -8 16 -4
v -7 15 -4
v -7 16 -4
v 7 15 -5
v 7 16 -5
v 8 15 -5
v 8 16 -5
v -8 15 -6
v -8 16 -6
v -7 15 -6
v -7 16 -6
v -7 15 -7
v -7 16 -7
v -6 15 -7
v -6 16 -7
v -5 15 -7
v -5 16 -7
v -4 15 -7
v -4 16 -7
v -3 15 -7
v -3 16 -7
v -2 15 -7
v -2 16 -7
v -1 15 -7
v -1 16 -7
v 0 15 -7
v 0 16 -7
v 1 15 -7
v 1 16 -7
v 2 15 -7
v 2 16 -7
v 3 15 -7
v 3 16 -7
v 4 15 -7
v 4 16 -7
v 5 15 -7
v 5 16 -7
v 6 15 -7
v 6 16 -7
v 7 15 -7
v 7 16 -7
v 8 15 -7
v 8 16 -7
v -8 0 -8
v -8 11 -8
v -8 16 -8
v -7 15 -8
v -7 16 -8
v -6 15 -8
v -6 16 -8
v -5 15 -8
v -5 16 -8
v -4 15 -8
v -4 16 -8
v -3 15 -8
v -3 16 -8
v -2 15 -8
v -2 16 -8
v -1 15 -8
v -1 16 -8
v 0 15 -8
v 0 16 -8
v 1 15 -8
v 1 16 -8
v 2 15 -8
v 2 16 -8
v 3 15 -8
v 3 16 -8
v 4 15 -8
v 4 16 -8
v 5 15 -8
v 5 16 -8
v 6 15 -8
v 6 16 -8
v 7 15 -8
v 7 16 -8
v 8 0 -8
v 8 11 -8
v 8 15 -8
v -8 0 8
v 8 0 8
v -8 0 -8
v 8 0 -8
v -8 15 8
v -7 15 8
v -6 15 8
v -5 15 8
v -4 15 8
v -3 15 8
v -2 15 8
v -1 15 8
v 0 15 8
v 1 15 8
v 2 15 8
v 3 15 8
v 4 15 8
v 5 15 8
v 6 15 8
v 7 15 8
v -8 15 7
v -7 15 7
v -6 15 7
v -5 15 7
v -4 15 7
v -3 15 7
v -2 15 7
v -1 15 7
v 0 15 7
v 1 15 7
v 2 15 7
v 3 15 7
v 4 15 7
v 5 15 7
v 6 15 7
v 7 15 7
v 8 15 7
v -8 15 6
v -7 15 6
v 7 15 6
v 8 15 6
v -8 15 5
v -7 15 5
v 7 15 5
v 8 15 5
v -8 15 4
v -7 15 4
v 7 15 4
v 8 15 4
v -8 15 3
v -7 15 3
v 7 15 3
v 8 15 3
v -8 15 2
v -7 15 2
v 7 15 2
v 8 15 2
v -8 15 1
v -7 15 1
v 7 15 1
v 8 15 1
v -8 15 -0
v -7 15 -0
v 7 15 -0
v 8 15 -0
v -8 15 -1
v -7 15 -1
v 7 15 -1
v 8 15 -1
v -8 15 -2
v -7 15 -2
v 7 15 -2
v 8 15 -2
v -8 15 -3
v -7 15 -3
v 7 15 -3
v 8 15 -3
v -8 15 -4
v -7 15 -4
v 7 15 -4
v 8 15 -4
v -8 15 -5
v -7 15 -5
v 7 15 -5
v 8 15 -5
v -8 15 -6
v -7 15 -6
v 7 15 -6
v 8 15 -6
v -8 15 -7
v -7 15 -7
v -6 15 -7
v -5 15 -7
v -4 15 -7
v -3 15 -7
v -2 15 -7
v -1 15 -7
v 0 15 -7
v 1 15 -7
v 2 15 -7
v 3 15 -7
v 4 15 -7
v 5 15 -7
v 6 15 -7
v 7 15 -7
v 8 15 -7
v -7 15 -8
v -6 15 -8
v -5 15 -8
v -4 15 -8
v -3 15 -8
v -2 15 -8
v -1 15 -8
v 0 15 -8
v 1 15 -8
v 2 15 -8
v 3 15 -8
v 4 15 -8
v 5 15 -8
v 6 15 -8
v 7 15 -8
v 8 15 -8
v -7 16 8
v -6 16 8
v -5 16 8
v -4 16 8
v -3 16 8
v -2 16 8
v -1 16 8
v 0 16 8
v 1 16 8
v 2 16 8
v 3 16 8
v 4 16 8
v 5 16 8
v 6 16 8
v 7 16 8
v 8 16 8
v -8 16 7
v -7 16 7
v -6 16 7
v -5 16 7
v -4 16 7
v -3 16 7
v -2 16 7
v -1 16 7
v 0 16 7
v 1 16 7
v 2 16 7
v 3 16 7
v 4 16 7
v 5 16 7
v 6 16 7
v 7 16 7
v 8 16 7
v -8 16 6
v -7 16 6
v 7 16 6
v 8 16 6
v -8 16 5
v -7 16 5
v 7 16 5
v 8 16 5
v -8 16 4
v -7 16 4
v 7 16 4
v 8 16 4
v -8 16 3
v -7 16 3
v 7 16 3
v 8 16 3
v -8 16 2
v -7 16 2
v 7 16 2
v 8 16 2
v -8 16 1
v -7 16 1
v 7 16 1
v 8 16 1
v -8 16 -0
v -7 16 -0
v 7 16 -0
v 8 16 -0
v -8 16 -1
v -7 16 -1
v 7 16 -1
v 8 16 -1
v -8 16 -2
v -7 16 -2
v 7 16 -2
v 8 16 -2
v -8 16 -3
v -7 16 -3
v 7 16 -3
v 8 16 -3
v -8 16 -4
v -7 16 -4
v 7 16 -4
v 8 16 -4
v -8 16 -5
v -7 16 -5
v 7 16 -5
v 8 16 -5
v -8 16 -6
v -7 16 -6
v 7 16 -6
v 8 16 -6
v -8 16 -7
v -7 16 -7
v -6 16 -7
v -5 16 -7
v -4 16 -7
v -3 16 -7
v -2 16 -7
v -1 16 -7
v 0 16 -7
v 1 16 -7
v 2 16 -7
v 3 16 -7
v 4 16 -7
v 5 16 -7
v 6 16 -7
v 7 16 -7
v 8 16 -7
v -8 16 -8
v -7 16 -8
v -6 16 -8
v -5 16 -8
v -4 16 -8
v -3 16 -8
v -2 16 -8
v -1 16 -8
v 0 16 -8
v 1 16 -8
v 2 16 -8
v 3 16 -8
v 4 16 -8
v 5 16 -8
v 6 16 -8
v 7 16 -8

# faces
f 3/1/1 2/1/1 1/1/1
f 4/1/1 2/1/1 3/1/1
f 5/2/1 4/2/1 3/2/1
f 6/2/1 4/2/1 5/2/1
f 7/2/1 4/2/1 6/2/1
f 8/2/1 4/2/1 7/2/1
f 9/2/1 4/2/1 8/2/1
f 10/2/1 4/2/1 9/2/1
f 11/2/1 4/2/1 10/2/1
f 12/2/1 4/2/1 11/2/1
f 13/2/1 4/2/1 12/2/1
f 14/2/1 4/2/1 13/2/1
f 15/2/1 4/2/1 14/2/1
f 16/2/1 4/2/1 15/2/1
f 17/2/1 4/2/1 16/2/1
f 18/2/1 4/2/1 17/2/1
f 19/2/1 4/2/1 18/2/1
f 20/2/1 4/2/1 19/2/1
f 21/2/1 7/2/1 6/2/1
f 22/2/1 7/2/1 21/2/1
f 23/2/1 9/2/1 8/2/1
f 24/2/1 9/2/1 23/2/1
f 25/2/1 11/2/1 10/2/1
f 26/2/1 11/2/1 25/2/1
f 27/2/1 13/2/1 12/2/1
f 28/2/1 13/2/1 27/2/1
f 29/2/1 15/2/1 14/2/1
f 30/2/1 15/2/1 29/2/1
f 31/2/1 17/2/1 16/2/1
f 32/2/1 17/2/1 31/2/1
f 33/2/1 19/2/1 18/2/1
f 34/2/1 19/2/1 33/2/1
f 35/2/1 4/2/1 20/2/1
f 36/2/1 4/2/1 35/2/1
f 53/2/1 38/2/1 37/2/1
f 54/2/1 38/2/1 53/2/1
f 55/2/1 40/2/1 39/2/1
f 56/2/1 40/2/1 55/2/1
f 57/2/1 42/2/1 41/2/1
f 58/2/1 42/2/1 57/2/1
f 59/2/1 44/2/1 43/2/1
f 60/2/1 44/2/1 59/2/1
f 61/2/1 46/2/1 45/2/1
f 62/2/1 46/2/1 61/2/1
f 63/2/1 48/2/1 47/2/1
f 64/2/1 48/2/1 63/2/1
f 65/2/1 50/2/1 49/2/1
f 66/2/1 50/2/1 65/2/1
f 67/2/1 52/2/1 51/2/1
f 68/2/1 52/2/1 67/2/1
f 71/2/1 70/2/1 69/2/1
f 72/2/1 70/2/1 71/2/1
f 75/2/1 74/2/1 73/2/1
f 76/2/1 74/2/1 75/2/1
f 79/2/1 78/2/1 77/2/1
f 80/2/1 78/2/1 79/2/1
f 83/2/1 82/2/1 81/2/1
f 84/2/1 82/2/1 83/2/1
f 87/2/1 86/2/1 85/2/1
f 88/2/1 86/2/1 87/2/1
f 91/2/1 90/2/1 89/2/1
f 92/2/1 90/2/1 91/2/1
f 95/2/1 94/2/1 93/2/1
f 96/2/1 94/2/1 95/2/1
f 99/2/1 98/2/1 97/2/1
f 100/2/1 98/2/1 99/2/1
f 103/2/1 102/2/1 101/2/1
f 104/2/1 102/2/1 103/2/1
f 107/2/1 106/2/1 105/2/1
f 108/2/1 106/2/1 107/2/1
f 111/2/1 110/2/1 109/2/1
f 112/2/1 110/2/1 111/2/1
f 115/2/1 114/2/1 113/2/1
f 116/2/1 114/2/1 115/2/1
f 119/2/1 118/2/1 117/2/1
f 120/2/1 118/2/1 119/2/1
f 123/2/1 122/2/1 121/2/1
f 124/2/1 122/2/1 123/2/1
f 125/2/2 126/2/2 127/2/2
f 127/2/2 126/2/2 128/2/2
f 129/2/2 130/2/2 131/2/2
f 131/2/2 130/2/2 132/2/2
f 133/2/2 134/2/2 135/2/2
f 135/2/2 134/2/2 136/2/2
f 137/2/2 138/2/2 139/2/2
f 139/2/2 138/2/2 140/2/2
f 141/2/2 142/2/2 143/2/2
f 143/2/2 142/2/2 144/2/2
f 145/2/2 146/2/2 147/2/2
f 147/2/2 146/2/2 148/2/2
f 149/2/2 150/2/2 151/2/2
f 151/2/2 150/2/2 152/2/2
f 153/2/2 154/2/2 155/2/2
f 155/2/2 154/2/2 156/2/2
f 157/2/2 158/2/2 159/2/2
f 159/2/2 158/2/2 160/2/2
f 161/2/2 162/2/2 163/2/2
f 163/2/2 162/2/2 164/2/2
f 165/2/2 166/2/2 167/2/2
f 167/2/2 166/2/2 168/2/2
f 169/2/2 170/2/2 171/2/2
f 171/2/2 170/2/2 172/2/2
f 173/2/2 174/2/2 175/2/2
f 175/2/2 174/2/2 176/2/2
f 177/2/2 178/2/2 179/2/2
f 179/2/2 178/2/2 180/2/2
f 181/2/2 182/2/2 197/2/2
f 197/2/2 182/2/2 198/2/2
f 183/2/2 184/2/2 199/2/2
f 199/2/2 184/2/2 200/2/2
f 185/2/2 186/2/2 201/2/2
f 201/2/2 186/2/2 202/2/2
f 187/2/2 188/2/2 203/2/2
f 203/2/2 188/2/2 204/2/2
f 189/2/2 190/2/2 205/2/2
f 205/2/2 190/2/2 206/2/2
f 191/2/2 192/2/2 207/2/2
f 207/2/2 192/2/2 208/2/2
f 193/2/2 194/2/2 209/2/2
f 209/2/2 194/2/2 210/2/2
f 195/2/2 196/2/2 211/2/2
f 211/2/2 196/2/2 212/2/2
f 213/1/2 214/1/2 215/1/2
f 215/1/2 214/1/2 216/1/2
f 215/2/2 216/2/2 217/2/2
f 217/2/2 216/2/2 218/2/2
f 218/2/2 216/2/2 219/2/2
f 219/2/2 216/2/2 220/2/2
f 220/2/2 216/2/2 221/2/2
f 221/2/2 216/2/2 222/2/2
f 222/2/2 216/2/2 223/2/2
f 223/2/2 216/2/2 224/2/2
f 224/2/2 216/2/2 225/2/2
f 225/2/2 216/2/2 226/2/2
f 226/2/2 216/2/2 227/2/2
f 227/2/2 216/2/2 228/2/2
f 228/2/2 216/2/2 229/2/2
f 229/2/2 216/2/2 230/2/2
f 230/2/2 216/2/2 231/2/2
f 231/2/2 216/2/2 232/2/2
f 215/2/2 217/2/2 233/2/2
f 233/2/2 217/2/2 234/2/2
f 218/2/2 219/2/2 235/2/2
f 235/2/2 219/2/2 236/2/2
f 220/2/2 221/2/2 237/2/2
f 237/2/2 221/2/2 238/2/2
f 222/2/2 223/2/2 239/2/2
f 239/2/2 223/2/2 240/2/2
f 224/2/2 225/2/2 241/2/2
f 241/2/2 225/2/2 242/2/2
f 226/2/2 227/2/2 243/2/2
f 243/2/2 227/2/2 244/2/2
f 228/2/2 229/2/2 245/2/2
f 245/2/2 229/2/2 246/2/2
f 230/2/2 231/2/2 247/2/2
f 247/2/2 231/2/2 248/2/2
f 252/1/3 250/1/3 249/1/3
f 252/2/3 251/2/3 250/2/3
f 253/2/3 251/2/3 252/2/3
f 254/2/3 251/2/3 253/2/3
f 256/2/3 254/2/3 253/2/3
f 256/2/3 255/2/3 254/2/3
f 257/2/3 255/2/3 256/2/3
f 258/2/3 256/2/3 253/2/3
f 260/1/3 252/1/3 249/1/3
f 260/1/3 253/1/3 252/1/3
f 261/2/3 259/2/3 258/2/3
f 261/1/3 253/1/3 260/1/3
f 261/2/3 258/2/3 253/2/3
f 262/2/3 259/2/3 261/2/3
f 263/2/3 259/2/3 262/2/3
f 264/2/3 261/2/3 260/2/3
f 264/2/3 262/2/3 261/2/3
f 266/2/3 264/2/3 260/2/3
f 266/2/3 265/2/3 264/2/3
f 267/2/3 265/2/3 266/2/3
f 268/1/3 260/1/3 249/1/3
f 268/2/3 266/2/3 260/2/3
f 269/2/3 266/2/3 268/2/3
f 270/2/3 266/2/3 269/2/3
f 272/2/3 270/2/3 269/2/3
f 272/2/3 271/2/3 270/2/3
f 273/2/3 271/2/3 272/2/3
f 274/2/3 272/2/3 269/2/3
f 276/1/3 268/1/3 249/1/3
f 276/1/3 269/1/3 268/1/3
f 277/2/3 275/2/3 274/2/3
f 277/1/3 269/1/3 276/1/3
f 277/2/3 274/2/3 269/2/3
f 278/2/3 275/2/3 277/2/3
f 279/2/3 275/2/3 278/2/3
f 280/2/3 277/2/3 276/2/3
f 280/2/3 278/2/3 277/2/3
f 282/1/3 276/1/3 249/1/3
f 282/2/3 281/2/3 280/2/3
f 282/2/3 280/2/3 276/2/3
f 283/2/3 281/2/3 282/2/3
f 284/2/3 281/2/3 283/2/3
f 285/2/3 281/2/3 284/2/3
f 286/2/3 284/2/3 283/2/3
f 288/1/3 282/1/3 249/1/3
f 288/1/3 283/1/3 282/1/3
f 289/2/3 287/2/3 286/2/3
f 289/1/3 283/1/3 288/1/3
f 289/2/3 286/2/3 283/2/3
f 290/2/3 287/2/3 289/2/3
f 291/2/3 287/2/3 290/2/3
f 292/2/3 289/2/3 288/2/3
f 292/2/3 290/2/3 289/2/3
f 294/1/3 288/1/3 249/1/3
f 295/2/3 293/2/3 292/2/3
f 295/1/3 288/1/3 294/1/3
f 295/2/3 292/2/3 288/2/3
f 296/2/3 293/2/3 295/2/3
f 299/2/3 298/2/3 297/2/3
f 300/2/3 298/2/3 299/2/3
f 303/2/3 302/2/3 301/2/3
f 304/2/3 302/2/3 303/2/3
f 307/2/3 306/2/3 305/2/3
f 308/2/3 306/2/3 307/2/3
f 311/2/3 310/2/3 309/2/3
f 312/2/3 310/2/3 311/2/3
f 315/2/3 314/2/3 313/2/3
f 316/2/3 314/2/3 315/2/3
f 319/2/3 318/2/3 317/2/3
f 320/2/3 318/2/3 319/2/3
f 323/2/3 322/2/3 321/2/3
f 324/2/3 322/2/3 323/2/3
f 327/2/3 326/2/3 325/2/3
f 328/2/3 326/2/3 327/2/3
f 331/2/3 330/2/3 329/2/3
f 332/2/3 330/2/3 331/2/3
f 335/2/3 334/2/3 333/2/3
f 336/2/3 334/2/3 335/2/3
f 339/2/3 338/2/3 337/2/3
f 340/2/3 338/2/3 339/2/3
f 343/2/3 342/2/3 341/2/3
f 344/2/3 342/2/3 343/2/3
f 347/2/3 346/2/3 345/2/3
f 348/2/3 346/2/3 347/2/3
f 351/2/3 350/2/3 349/2/3
f 352/2/3 350/2/3 351/2/3
f 355/2/3 354/2/3 353/2/3
f 356/2/3 354/2/3 355/2/3
f 359/2/3 358/2/3 357/2/3
f 360/2/3 358/2/3 359/2/3
f 363/2/3 362/2/3 361/2/3
f 364/2/3 362/2/3 363/2/3
f 367/2/3 366/2/3 365/2/3
f 368/2/3 366/2/3 367/2/3
f 371/2/3 370/2/3 369/2/3
f 372/2/3 370/2/3 371/2/3
f 375/2/3 374/2/3 373/2/3
f 376/2/3 374/2/3 375/2/3
f 379/2/3 378/2/3 377/2/3
f 380/2/3 378/2/3 379/2/3
f 383/2/3 382/2/3 381/2/3
f 384/2/3 382/2/3 383/2/3
f 385/2/4 386/2/4 387/2/4
f 387/2/4 386/2/4 388/2/4
f 389/2/4 390/2/4 391/2/4
f 391/2/4 390/2/4 392/2/4
f 393/2/4 394/2/4 395/2/4
f 395/2/4 394/2/4 396/2/4
f 397/2/4 398/2/4 399/2/4
f 399/2/4 398/2/4 400/2/4
f 401/2/4 402/2/4 403/2/4
f 403/2/4 402/2/4 404/2/4
f 405/2/4 406/2/4 407/2/4
f 407/2/4 406/2/4 408/2/4
f 409/2/4 410/2/4 411/2/4
f 411/2/4 410/2/4 412/2/4
f 413/2/4 414/2/4 415/2/4
f 415/2/4 414/2/4 416/2/4
f 417/2/4 418/2/4 419/2/4
f 419/2/4 418/2/4 420/2/4
f 421/2/4 422/2/4 423/2/4
f 423/2/4 422/2/4 424/2/4
f 425/2/4 426/2/4 427/2/4
f 427/2/4 426/2/4 428/2/4
f 429/2/4 430/2/4 431/2/4
f 431/2/4 430/2/4 432/2/4
f 433/2/4 434/2/4 435/2/4
f 435/2/4 434/2/4 436/2/4
f 437/2/4 438/2/4 439/2/4
f 439/2/4 438/2/4 440/2/4
f 441/2/4 442/2/4 443/2/4
f 443/2/4 442/2/4 444/2/4
f 445/2/4 446/2/4 447/2/4
f 447/2/4 446/2/4 448/2/4
f 449/2/4 450/2/4 451/2/4
f 451/2/4 450/2/4 452/2/4
f 453/2/4 454/2/4 455/2/4
f 455/2/4 454/2/4 456/2/4
f 457/2/4 458/2/4 459/2/4
f 459/2/4 458/2/4 460/2/4
f 461/2/4 462/2/4 463/2/4
f 463/2/4 462/2/4 464/2/4
f 465/2/4 466/2/4 467/2/4
f 467/2/4 466/2/4 468/2/4
f 469/2/4 470/2/4 471/2/4
f 471/2/4 470/2/4 472/2/4
f 474/2/4 475/2/4 476/2/4
f 476/2/4 475/2/4 477/2/4
f 474/2/4 476/2/4 478/2/4
f 474/2/4 478/2/4 480/2/4
f 478/2/4 479/2/4 480/2/4
f 480/2/4 479/2/4 481/2/4
f 474/2/4 480/2/4 482/2/4
f 474/2/4 482/2/4 484/2/4
f 482/2/4 483/2/4 484/2/4
f 484/2/4 483/2/4 485/2/4
f 474/2/4 484/2/4 486/2/4
f 474/2/4 486/2/4 488/2/4
f 486/2/4 487/2/4 488/2/4
f 488/2/4 487/2/4 489/2/4
f 474/2/4 488/2/4 490/2/4
f 474/2/4 490/2/4 492/2/4
f 490/2/4 491/2/4 492/2/4
f 492/2/4 491/2/4 493/2/4
f 474/2/4 492/2/4 494/2/4
f 474/2/4 494/2/4 496/2/4
f 494/2/4 495/2/4 496/2/4
f 496/2/4 495/2/4 497/2/4
f 474/2/4 496/2/4 498/2/4
f 474/2/4 498/2/4 500/2/4
f 498/2/4 499/2/4 500/2/4
f 500/2/4 499/2/4 501/2/4
f 474/2/4 500/2/4 502/2/4
f 474/2/4 502/2/4 504/2/4
f 502/2/4 503/2/4 504/2/4
f 504/2/4 503/2/4 505/2/4
f 473/1/4 474/1/4 506/1/4
f 474/2/4 504/2/4 507/2/4
f 506/1/4 474/1/4 507/1/4
f 507/2/4 504/2/4 508/2/4
f 511/1/5 510/1/5 509/1/5
f 512/1/5 510/1/5 511/1/5
f 513/2/6 514/2/6 529/2/6
f 529/2/6 514/2/6 530/2/6
f 515/2/6 516/2/6 531/2/6
f 531/2/6 516/2/6 532/2/6
f 517/2/6 518/2/6 533/2/6
f 533/2/6 518/2/6 534/2/6
f 519/2/6 520/2/6 535/2/6
f 535/2/6 520/2/6 536/2/6
f 521/2/6 522/2/6 537/2/6
f 537/2/6 522/2/6 538/2/6
f 523/2/6 524/2/6 539/2/6
f 539/2/6 524/2/6 540/2/6
f 525/2/6 526/2/6 541/2/6
f 541/2/6 526/2/6 542/2/6
f 527/2/6 528/2/6 543/2/6
f 543/2/6 528/2/6 544/2/6
f 544/2/6 545/2/6 548/2/6
f 548/2/6 545/2/6 549/2/6
f 546/2/6 547/2/6 550/2/6
f 550/2/6 547/2/6 551/2/6
f 552/2/6 553/2/6 556/2/6
f 556/2/6 553/2/6 557/2/6
f 554/2/6 555/2/6 558/2/6
f 558/2/6 555/2/6 559/2/6
f 560/2/6 561/2/6 564/2/6
f 564/2/6 561/2/6 565/2/6
f 562/2/6 563/2/6 566/2/6
f 566/2/6 563/2/6 567/2/6
f 568/2/6 569/2/6 572/2/6
f 572/2/6 569/2/6 573/2/6
f 570/2/6 571/2/6 574/2/6
f 574/2/6 571/2/6 575/2/6
f 576/2/6 577/2/6 580/2/6
f 580/2/6 577/2/6 581/2/6
f 578/2/6 579/2/6 582/2/6
f 582/2/6 579/2/6 583/2/6
f 584/2/6 585/2/6 588/2/6
f 588/2/6 585/2/6 589/2/6
f 586/2/6 587/2/6 590/2/6
f 590/2/6 587/2/6 591/2/6
f 592/2/6 593/2/6 596/2/6
f 596/2/6 593/2/6 597/2/6
f 594/2/6 595/2/6 598/2/6
f 598/2/6 595/2/6 599/2/6
f 599/2/6 600/2/6 615/2/6
f 615/2/6 600/2/6 616/2/6
f 601/2/6 602/2/6 617/2/6
f 617/2/6 602/2/6 618/2/6
f 603/2/6 604/2/6 619/2/6
f 619/2/6 604/2/6 620/2/6
f 605/2/6 606/2/6 621/2/6
f 621/2/6 606/2/6 622/2/6
f 607/2/6 608/2/6 623/2/6
f 623/2/6 608/2/6 624/2/6
f 609/2/6 610/2/6 625/2/6
f 625/2/6 610/2/6 626/2/6
f 611/2/6 612/2/6 627/2/6
f 627/2/6 612/2/6 628/2/6
f 613/2/6 614/2/6 629/2/6
f 629/2/6 614/2/6 630/2/6
f 631/2/6 632/2/6 648/2/6
f 648/2/6 632/2/6 649/2/6
f 633/2/6 634/2/6 650/2/6
f 650/2/6 634/2/6 651/2/6
f 635/2/6 636/2/6 652/2/6
f 652/2/6 636/2/6 653/2/6
f 637/2/6 638/2/6 654/2/6
f 654/2/6 638/2/6 655/2/6
f 639/2/6 640/2/6 656/2/6
f 656/2/6 640/2/6 657/2/6
f 641/2/6 642/2/6 658/2/6
f 658/2/6 642/2/6 659/2/6
f 643/2/6 644/2/6 660/2/6
f 660/2/6 644/2/6 661/2/6
f 645/2/6 646/2/6 662/2/6
f 662/2/6 646/2/6 663/2/6
f 660/2/6 661/2/6 664/2/6
f 648/2/6 649/2/6 664/2/6
f 661/2/6 662/2/6 664/2/6
f 650/2/6 651/2/6 664/2/6
f 659/2/6 660/2/6 664/2/6
f 652/2/6 653/2/6 664/2/6
f 657/2/6 658/2/6 664/2/6
f 654/2/6 655/2/6 664/2/6
f 655/2/6 656/2/6 664/2/6
f 656/2/6 657/2/6 664/2/6
f 653/2/6 654/2/6 664/2/6
f 658/2/6 659/2/6 664/2/6
f 651/2/6 652/2/6 664/2/6
f 647/2/6 648/2/6 664/2/6
f 649/2/6 650/2/6 664/2/6
f 664/2/6 662/2/6 665/2/6
f 665/2/6 662/2/6 666/2/6
f 666/2/6 667/2/6 669/2/6
f 665/2/6 666/2/6 669/2/6
f 669/2/6 667/2/6 670/2/6
f 670/2/6 667/2/6 671/2/6
f 668/2/6 669/2/6 672/2/6
f 669/2/6 670/2/6 672/2/6
f 672/2/6 670/2/6 673/2/6
f 673/2/6 670/2/6 674/2/6
f 674/2/6 675/2/6 677/2/6
f 673/2/6 674/2/6 677/2/6
f 677/2/6 675/2/6 678/2/6
f 678/2/6 675/2/6 679/2/6
f 676/2/6 677/2/6 680/2/6
f 677/2/6 678/2/6 680/2/6
f 680/2/6 678/2/6 681/2/6
f 681/2/6 678/2/6 682/2/6
f 682/2/6 683/2/6 685/2/6
f 681/2/6 682/2/6 685/2/6
f 685/2/6 683/2/6 686/2/6
f 686/2/6 683/2/6 687/2/6
f 684/2/6 685/2/6 688/2/6
f 685/2/6 686/2/6 688/2/6
f 688/2/6 686/2/6 689/2/6
f 689/2/6 686/2/6 690/2/6
f 690/2/6 691/2/6 693/2/6
f 689/2/6 690/2/6 693/2/6
f 693/2/6 691/2/6 694/2/6
f 694/2/6 691/2/6 695/2/6
f 692/2/6 693/2/6 696/2/6
f 693/2/6 694/2/6 696/2/6
f 696/2/6 694/2/6 697/2/6
f 697/2/6 694/2/6 698/2/6
f 698/2/6 699/2/6 701/2/6
f 697/2/6 698/2/6 701/2/6
f 701/2/6 699/2/6 702/2/6
f 702/2/6 699/2/6 703/2/6
f 700/2/6 701/2/6 704/2/6
f 701/2/6 702/2/6 704/2/6
f 704/2/6 702/2/6 705/2/6
f 705/2/6 702/2/6 706/2/6
f 706/2/6 707/2/6 709/2/6
f 705/2/6 706/2/6 709/2/6
f 709/2/6 707/2/6 710/2/6
f 710/2/6 707/2/6 711/2/6
f 708/2/6 709/2/6 712/2/6
f 709/2/6 710/2/6 712/2/6
f 712/2/6 710/2/6 713/2/6
f 713/2/6 710/2/6 714/2/6
f 714/2/6 715/2/6 717/2/6
f 713/2/6 714/2/6 717/2/6
f 717/2/6 715/2/6 718/2/6
f 718/2/6 715/2/6 719/2/6
f 719/2/6 715/2/6 720/2/6
f 720/2/6 715/2/6 721/2/6
f 721/2/6 715/2/6 722/2/6
f 722/2/6 715/2/6 723/2/6
f 723/2/6 715/2/6 724/2/6
f 724/2/6 715/2/6 725/2/6
f 725/2/6 715/2/6 726/2/6
f 726/2/6 715/2/6 727/2/6
f 727/2/6 715/2/6 728/2/6
f 728/2/6 715/2/6 729/2/6
f 729/2/6 715/2/6 730/2/6
f 730/2/6 715/2/6 731/2/6
f 731/2/6 715/2/6 732/2/6
f 716/2/6 717/2/6 733/2/6
f 733/2/6 717/2/6 734/2/6
f 718/2/6 719/2/6 735/2/6
f 735/2/6 719/2/6 736/2/6
f 720/2/6 721/2/6 737/2/6
f 737/2/6 721/2/6 738/2/6
f 722/2/6 723/2/6 739/2/6
f 739/2/6 723/2/6 740/2/6
f 724/2/6 725/2/6 741/2/6
f 741/2/6 725/2/6 742/2/6
f 726/2/6 727/2/6 743/2/6
f 743/2/6 727/2/6 744/2/6
f 728/2/6 729/2/6 745/2/6
f 745/2/6 729/2/6 746/2/6
f 730/2/6 731/2/6 747/2/6
f 747/2/6 731/2/6 748/2/6
