# MagicaVoxel @ Ephtracy

# group
g Moyou1

# material
mtllib Moyou1.mtl
usemtl palette

# normals
vn -1 0 0
vn 1 0 0
vn 0 0 1
vn 0 0 -1
vn 0 -1 0
vn 0 1 0

# texcoords
vt 0.333984 0.5
vt 0.337891 0.5

# verts
v -8 0 8
v -8 0 -8
v -8 11 8
v -8 11 -8
v -8 15 8
v -8 15 7
v -8 16 7
v -8 16 -8
v -7 15 8
v -7 15 7
v -7 16 8
v -7 16 7
v 7 15 -7
v 7 15 -8
v 7 16 -7
v 7 16 -8
v 8 0 8
v 8 0 -8
v 8 11 8
v 8 11 -8
v 8 15 -7
v 8 15 -8
v 8 16 8
v 8 16 -7
v -8 0 8
v -8 11 8
v -8 15 8
v -7 11 8
v -7 12 8
v -7 15 8
v -7 16 8
v -4 11 8
v -4 12 8
v -1 11 8
v -1 12 8
v 2 11 8
v 2 12 8
v 4 11 8
v 4 12 8
v 6 11 8
v 6 12 8
v 8 0 8
v 8 11 8
v 8 16 8
v -8 15 7
v -8 16 7
v -7 15 7
v -7 16 7
v 7 15 -7
v 7 16 -7
v 8 15 -7
v 8 16 -7
v -8 0 -8
v -8 11 -8
v -8 16 -8
v 7 15 -8
v 7 16 -8
v 8 0 -8
v 8 11 -8
v 8 15 -8
v -8 0 8
v 8 0 8
v -8 0 -8
v 8 0 -8
v -8 15 8
v -7 15 8
v -8 15 7
v -7 15 7
v 7 15 -7
v 8 15 -7
v 7 15 -8
v 8 15 -8
v -7 16 8
v 8 16 8
v -8 16 7
v -7 16 7
v 7 16 -7
v 8 16 -7
v -8 16 -8
v 7 16 -8

# faces
f 3/1/1 2/1/1 1/1/1
f 4/1/1 2/1/1 3/1/1
f 5/2/1 4/2/1 3/2/1
f 6/2/1 4/2/1 5/2/1
f 7/2/1 4/2/1 6/2/1
f 8/2/1 4/2/1 7/2/1
f 11/2/1 10/2/1 9/2/1
f 12/2/1 10/2/1 11/2/1
f 13/2/2 14/2/2 15/2/2
f 15/2/2 14/2/2 16/2/2
f 17/1/2 18/1/2 19/1/2
f 19/1/2 18/1/2 20/1/2
f 19/2/2 20/2/2 21/2/2
f 21/2/2 20/2/2 22/2/2
f 19/2/2 21/2/2 23/2/2
f 23/2/2 21/2/2 24/2/2
f 28/1/3 26/1/3 25/1/3
f 28/2/3 27/2/3 26/2/3
f 29/2/3 27/2/3 28/2/3
f 30/2/3 27/2/3 29/2/3
f 32/1/3 28/1/3 25/1/3
f 32/1/3 29/1/3 28/1/3
f 33/2/3 31/2/3 30/2/3
f 33/1/3 29/1/3 32/1/3
f 33/2/3 30/2/3 29/2/3
f 34/1/3 32/1/3 25/1/3
f 34/2/3 33/2/3 32/2/3
f 35/2/3 31/2/3 33/2/3
f 35/2/3 33/2/3 34/2/3
f 36/1/3 34/1/3 25/1/3
f 36/1/3 35/1/3 34/1/3
f 37/2/3 31/2/3 35/2/3
f 37/1/3 35/1/3 36/1/3
f 38/1/3 36/1/3 25/1/3
f 38/2/3 37/2/3 36/2/3
f 39/2/3 31/2/3 37/2/3
f 39/2/3 37/2/3 38/2/3
f 40/1/3 38/1/3 25/1/3
f 40/1/3 39/1/3 38/1/3
f 41/2/3 31/2/3 39/2/3
f 41/1/3 39/1/3 40/1/3
f 42/1/3 40/1/3 25/1/3
f 43/2/3 41/2/3 40/2/3
f 43/1/3 40/1/3 42/1/3
f 44/2/3 31/2/3 41/2/3
f 44/2/3 41/2/3 43/2/3
f 47/2/3 46/2/3 45/2/3
f 48/2/3 46/2/3 47/2/3
f 49/2/4 50/2/4 51/2/4
f 51/2/4 50/2/4 52/2/4
f 54/2/4 55/2/4 56/2/4
f 56/2/4 55/2/4 57/2/4
f 53/1/4 54/1/4 58/1/4
f 54/2/4 56/2/4 59/2/4
f 58/1/4 54/1/4 59/1/4
f 59/2/4 56/2/4 60/2/4
f 63/1/5 62/1/5 61/1/5
f 64/1/5 62/1/5 63/1/5
f 65/2/6 66/2/6 67/2/6
f 67/2/6 66/2/6 68/2/6
f 69/2/6 70/2/6 71/2/6
f 71/2/6 70/2/6 72/2/6
f 73/2/6 74/2/6 76/2/6
f 76/2/6 74/2/6 77/2/6
f 75/2/6 76/2/6 77/2/6
f 77/2/6 74/2/6 78/2/6
f 75/2/6 77/2/6 79/2/6
f 79/2/6 77/2/6 80/2/6
