# MagicaVoxel @ Ephtracy

# group
g kiritan_Body

# material
mtllib kiritan_Body.mtl
usemtl palette

# normals
vn -1 0 0
vn 1 0 0
vn 0 0 1
vn 0 0 -1
vn 0 -1 0
vn 0 1 0

# texcoords
vt 0.119141 0.5
vt 0.150391 0.5
vt 0.201172 0.5
vt 0.212891 0.5
vt 0.216797 0.5
vt 0.244141 0.5
vt 0.263672 0.5
vt 0.275391 0.5
vt 0.306641 0.5

# verts
v -6.5 0 -1
v -6.5 0 -2
v -6.5 1 -1
v -6.5 1 -2
v -6.5 2 -1
v -6.5 2 -2
v -5.5 2 -1
v -5.5 2 -2
v -5.5 4 -1
v -5.5 4 -2
v -4.5 1 4
v -4.5 1 -1
v -4.5 2 4
v -4.5 2 -1
v -4.5 4 -1
v -4.5 4 -2
v -4.5 7 -1
v -4.5 7 -2
v -3.5 1 5
v -3.5 1 4
v -3.5 2 5
v -3.5 2 4
v -3.5 2 -1
v -3.5 3 4
v -3.5 3 -1
v -3.5 3 -2
v -3.5 3 -5
v -3.5 4 4
v -3.5 4 -1
v -3.5 5 4
v -3.5 5 -1
v -3.5 6 4
v -3.5 6 -1
v -3.5 7 4
v -3.5 7 -1
v -3.5 7 -2
v -3.5 8 3
v -3.5 8 -0
v -3.5 9 3
v -3.5 9 -0
v -3.5 9 -4
v -3.5 9 -5
v -3.5 10 4
v -3.5 10 -4
v -1.5 10 3
v -1.5 10 -0
v -1.5 11 3
v -1.5 11 -0
v 0.5 3 1
v 0.5 3 -0
v 0.5 4 1
v 0.5 4 -0
v 1.5 8 4
v 1.5 8 3
v 1.5 10 4
v 1.5 10 3
v 2.5 1 3
v 2.5 1 -0
v 2.5 3 3
v 2.5 3 -0
v 2.5 9 -1
v 2.5 9 -2
v 2.5 10 -1
v 2.5 10 -2
v 3.5 1 -1
v 3.5 1 -2
v 3.5 3 -1
v 3.5 3 -2
v 4.5 0 -1
v 4.5 0 -2
v 4.5 1 -1
v 4.5 1 -2
v -4.5 0 -1
v -4.5 0 -2
v -4.5 1 -1
v -4.5 1 -2
v -3.5 1 -1
v -3.5 1 -2
v -3.5 3 -1
v -3.5 3 -2
v -2.5 1 3
v -2.5 1 -0
v -2.5 3 3
v -2.5 3 -0
v -2.5 9 -1
v -2.5 9 -2
v -2.5 10 -1
v -2.5 10 -2
v -1.5 8 4
v -1.5 8 3
v -1.5 10 4
v -1.5 10 3
v -0.5 3 1
v -0.5 3 -0
v -0.5 4 1
v -0.5 4 -0
v 1.5 10 3
v 1.5 10 -0
v 1.5 11 3
v 1.5 11 -0
v 3.5 1 5
v 3.5 1 4
v 3.5 2 5
v 3.5 2 4
v 3.5 2 -1
v 3.5 3 4
v 3.5 3 -1
v 3.5 3 -2
v 3.5 3 -5
v 3.5 4 4
v 3.5 4 -1
v 3.5 5 4
v 3.5 5 -1
v 3.5 6 4
v 3.5 6 -1
v 3.5 7 4
v 3.5 7 -1
v 3.5 7 -2
v 3.5 8 3
v 3.5 8 -0
v 3.5 9 3
v 3.5 9 -0
v 3.5 9 -4
v 3.5 9 -5
v 3.5 10 4
v 3.5 10 -4
v 4.5 1 4
v 4.5 1 -1
v 4.5 2 4
v 4.5 2 -1
v 4.5 4 -1
v 4.5 4 -2
v 4.5 7 -1
v 4.5 7 -2
v 5.5 2 -1
v 5.5 2 -2
v 5.5 4 -1
v 5.5 4 -2
v 6.5 0 -1
v 6.5 0 -2
v 6.5 1 -1
v 6.5 1 -2
v 6.5 2 -1
v 6.5 2 -2
v -3.5 1 5
v -3.5 2 5
v 3.5 1 5
v 3.5 2 5
v -4.5 1 4
v -4.5 2 4
v -3.5 1 4
v -3.5 2 4
v -3.5 3 4
v -3.5 4 4
v -3.5 5 4
v -3.5 6 4
v -3.5 7 4
v -3.5 10 4
v -2.5 7 4
v -2.5 8 4
v -2.5 10 4
v -1.5 7 4
v -1.5 8 4
v -1.5 10 4
v -0.5 3 4
v -0.5 4 4
v 0.5 3 4
v 0.5 4 4
v 1.5 5 4
v 1.5 6 4
v 1.5 7 4
v 1.5 8 4
v 1.5 10 4
v 2.5 5 4
v 2.5 6 4
v 2.5 7 4
v 2.5 8 4
v 2.5 10 4
v 3.5 1 4
v 3.5 2 4
v 3.5 3 4
v 3.5 4 4
v 3.5 5 4
v 3.5 6 4
v 3.5 7 4
v 3.5 10 4
v 4.5 1 4
v 4.5 2 4
v -1.5 8 3
v -1.5 10 3
v -1.5 11 3
v 1.5 8 3
v 1.5 10 3
v 1.5 11 3
v -2.5 1 -0
v -2.5 3 -0
v -0.5 3 -0
v -0.5 4 -0
v 0.5 3 -0
v 0.5 4 -0
v 2.5 1 -0
v 2.5 3 -0
v -6.5 0 -1
v -6.5 1 -1
v -6.5 2 -1
v -5.5 2 -1
v -5.5 4 -1
v -4.5 0 -1
v -4.5 1 -1
v -4.5 2 -1
v -4.5 4 -1
v -4.5 7 -1
v -3.5 2 -1
v -3.5 3 -1
v -3.5 4 -1
v -3.5 5 -1
v -3.5 6 -1
v -3.5 7 -1
v 3.5 2 -1
v 3.5 3 -1
v 3.5 4 -1
v 3.5 5 -1
v 3.5 6 -1
v 3.5 7 -1
v 4.5 0 -1
v 4.5 1 -1
v 4.5 2 -1
v 4.5 4 -1
v 4.5 7 -1
v 5.5 2 -1
v 5.5 4 -1
v 6.5 0 -1
v 6.5 1 -1
v 6.5 2 -1
v -2.5 9 -2
v -2.5 10 -2
v 2.5 9 -2
v 2.5 10 -2
v -2.5 1 3
v -2.5 3 3
v -0.5 3 3
v 0.5 3 3
v 2.5 1 3
v 2.5 3 3
v -0.5 3 1
v -0.5 4 1
v 0.5 3 1
v 0.5 4 1
v -1.5 10 -0
v -1.5 11 -0
v 1.5 10 -0
v 1.5 11 -0
v -3.5 1 -1
v -3.5 3 -1
v -2.5 9 -1
v -2.5 10 -1
v 2.5 9 -1
v 2.5 10 -1
v 3.5 1 -1
v 3.5 3 -1
v -6.5 0 -2
v -6.5 1 -2
v -6.5 2 -2
v -5.5 2 -2
v -5.5 4 -2
v -4.5 0 -2
v -4.5 1 -2
v -4.5 4 -2
v -4.5 7 -2
v -3.5 1 -2
v -3.5 3 -2
v -3.5 7 -2
v 3.5 1 -2
v 3.5 3 -2
v 3.5 7 -2
v 4.5 0 -2
v 4.5 1 -2
v 4.5 4 -2
v 4.5 7 -2
v 5.5 2 -2
v 5.5 4 -2
v 6.5 0 -2
v 6.5 1 -2
v 6.5 2 -2
v -3.5 9 -4
v -3.5 10 -4
v 3.5 9 -4
v 3.5 10 -4
v -3.5 3 -5
v -3.5 9 -5
v 3.5 3 -5
v 3.5 9 -5
v -6.5 0 -1
v -4.5 0 -1
v 4.5 0 -1
v 6.5 0 -1
v -6.5 0 -2
v -4.5 0 -2
v 4.5 0 -2
v 6.5 0 -2
v -3.5 1 5
v 3.5 1 5
v -4.5 1 4
v -3.5 1 4
v 3.5 1 4
v 4.5 1 4
v -2.5 1 3
v 2.5 1 3
v -2.5 1 -0
v 2.5 1 -0
v -4.5 1 -1
v -3.5 1 -1
v 3.5 1 -1
v 4.5 1 -1
v -4.5 1 -2
v -3.5 1 -2
v 3.5 1 -2
v 4.5 1 -2
v -2.5 3 3
v -0.5 3 3
v 0.5 3 3
v 2.5 3 3
v -0.5 3 1
v 0.5 3 1
v -2.5 3 -0
v -0.5 3 -0
v 0.5 3 -0
v 2.5 3 -0
v -3.5 3 -1
v 3.5 3 -1
v -3.5 3 -2
v 3.5 3 -2
v -3.5 3 -5
v 3.5 3 -5
v -0.5 4 1
v 0.5 4 1
v -0.5 4 -0
v 0.5 4 -0
v -3.5 2 5
v 3.5 2 5
v -4.5 2 4
v -3.5 2 4
v 3.5 2 4
v 4.5 2 4
v -6.5 2 -1
v -5.5 2 -1
v -4.5 2 -1
v -3.5 2 -1
v 3.5 2 -1
v 4.5 2 -1
v 5.5 2 -1
v 6.5 2 -1
v -6.5 2 -2
v -5.5 2 -2
v 5.5 2 -2
v 6.5 2 -2
v -5.5 4 -1
v -4.5 4 -1
v 4.5 4 -1
v 5.5 4 -1
v -5.5 4 -2
v -4.5 4 -2
v 4.5 4 -2
v 5.5 4 -2
v -4.5 7 -1
v -3.5 7 -1
v 3.5 7 -1
v 4.5 7 -1
v -4.5 7 -2
v -3.5 7 -2
v 3.5 7 -2
v 4.5 7 -2
v -1.5 8 4
v 1.5 8 4
v -1.5 8 3
v 1.5 8 3
v -2.5 9 -1
v 2.5 9 -1
v -2.5 9 -2
v 2.5 9 -2
v -3.5 9 -4
v 3.5 9 -4
v -3.5 9 -5
v 3.5 9 -5
v -3.5 10 4
v -2.5 10 4
v -1.5 10 4
v 1.5 10 4
v 2.5 10 4
v 3.5 10 4
v -1.5 10 3
v 1.5 10 3
v -1.5 10 -0
v 1.5 10 -0
v -2.5 10 -1
v 2.5 10 -1
v -2.5 10 -2
v 2.5 10 -2
v -3.5 10 -4
v 3.5 10 -4
v -1.5 11 3
v 1.5 11 3
v -1.5 11 -0
v 1.5 11 -0

# faces
f 3/5/1 2/5/1 1/5/1
f 4/5/1 2/5/1 3/5/1
f 5/6/1 4/6/1 3/6/1
f 6/6/1 4/6/1 5/6/1
f 9/6/1 8/6/1 7/6/1
f 10/6/1 8/6/1 9/6/1
f 13/2/1 12/2/1 11/2/1
f 14/2/1 12/2/1 13/2/1
f 17/6/1 16/6/1 15/6/1
f 18/6/1 16/6/1 17/6/1
f 21/1/1 20/1/1 19/1/1
f 22/1/1 20/1/1 21/1/1
f 24/1/1 23/1/1 22/1/1
f 25/1/1 23/1/1 24/1/1
f 28/4/1 25/4/1 24/4/1
f 29/4/1 25/4/1 28/4/1
f 30/6/1 29/6/1 28/6/1
f 31/6/1 29/6/1 30/6/1
f 32/5/1 31/5/1 30/5/1
f 33/5/1 31/5/1 32/5/1
f 34/6/1 33/6/1 32/6/1
f 35/6/1 33/6/1 34/6/1
f 36/7/1 27/7/1 26/7/1
f 37/7/1 35/7/1 34/7/1
f 37/7/1 36/7/1 35/7/1
f 38/7/1 36/7/1 37/7/1
f 39/7/1 37/7/1 34/7/1
f 39/4/1 38/4/1 37/4/1
f 40/7/1 36/7/1 38/7/1
f 40/4/1 38/4/1 39/4/1
f 41/7/1 27/7/1 36/7/1
f 41/7/1 36/7/1 40/7/1
f 42/7/1 27/7/1 41/7/1
f 43/7/1 40/7/1 39/7/1
f 43/7/1 39/7/1 34/7/1
f 43/7/1 41/7/1 40/7/1
f 44/7/1 41/7/1 43/7/1
f 47/9/1 46/9/1 45/9/1
f 48/9/1 46/9/1 47/9/1
f 51/9/1 50/9/1 49/9/1
f 52/9/1 50/9/1 51/9/1
f 55/8/1 54/8/1 53/8/1
f 56/8/1 54/8/1 55/8/1
f 59/1/1 58/1/1 57/1/1
f 60/1/1 58/1/1 59/1/1
f 63/7/1 62/7/1 61/7/1
f 64/7/1 62/7/1 63/7/1
f 67/6/1 66/6/1 65/6/1
f 68/6/1 66/6/1 67/6/1
f 71/5/1 70/5/1 69/5/1
f 72/5/1 70/5/1 71/5/1
f 73/5/2 74/5/2 75/5/2
f 75/5/2 74/5/2 76/5/2
f 77/6/2 78/6/2 79/6/2
f 79/6/2 78/6/2 80/6/2
f 81/1/2 82/1/2 83/1/2
f 83/1/2 82/1/2 84/1/2
f 85/7/2 86/7/2 87/7/2
f 87/7/2 86/7/2 88/7/2
f 89/8/2 90/8/2 91/8/2
f 91/8/2 90/8/2 92/8/2
f 93/9/2 94/9/2 95/9/2
f 95/9/2 94/9/2 96/9/2
f 97/9/2 98/9/2 99/9/2
f 99/9/2 98/9/2 100/9/2
f 101/1/2 102/1/2 103/1/2
f 103/1/2 102/1/2 104/1/2
f 104/1/2 105/1/2 106/1/2
f 106/1/2 105/1/2 107/1/2
f 106/4/2 107/4/2 110/4/2
f 110/4/2 107/4/2 111/4/2
f 110/6/2 111/6/2 112/6/2
f 112/6/2 111/6/2 113/6/2
f 112/5/2 113/5/2 114/5/2
f 114/5/2 113/5/2 115/5/2
f 114/6/2 115/6/2 116/6/2
f 116/6/2 115/6/2 117/6/2
f 108/7/2 109/7/2 118/7/2
f 116/7/2 117/7/2 119/7/2
f 117/7/2 118/7/2 119/7/2
f 119/7/2 118/7/2 120/7/2
f 116/7/2 119/7/2 121/7/2
f 119/4/2 120/4/2 121/4/2
f 120/7/2 118/7/2 122/7/2
f 121/4/2 120/4/2 122/4/2
f 118/7/2 109/7/2 123/7/2
f 122/7/2 118/7/2 123/7/2
f 123/7/2 109/7/2 124/7/2
f 121/7/2 122/7/2 125/7/2
f 116/7/2 121/7/2 125/7/2
f 122/7/2 123/7/2 125/7/2
f 125/7/2 123/7/2 126/7/2
f 127/2/2 128/2/2 129/2/2
f 129/2/2 128/2/2 130/2/2
f 131/6/2 132/6/2 133/6/2
f 133/6/2 132/6/2 134/6/2
f 135/6/2 136/6/2 137/6/2
f 137/6/2 136/6/2 138/6/2
f 139/5/2 140/5/2 141/5/2
f 141/5/2 140/5/2 142/5/2
f 141/6/2 142/6/2 143/6/2
f 143/6/2 142/6/2 144/6/2
f 147/1/3 146/1/3 145/1/3
f 148/1/3 146/1/3 147/1/3
f 151/2/3 150/2/3 149/2/3
f 152/2/3 150/2/3 151/2/3
f 159/7/3 158/7/3 157/7/3
f 159/6/3 157/6/3 156/6/3
f 160/7/3 158/7/3 159/7/3
f 161/7/3 158/7/3 160/7/3
f 162/6/3 159/6/3 156/6/3
f 162/4/3 160/4/3 159/4/3
f 163/8/3 161/8/3 160/8/3
f 163/4/3 160/4/3 162/4/3
f 164/8/3 161/8/3 163/8/3
f 165/1/3 153/1/3 152/1/3
f 165/4/3 154/4/3 153/4/3
f 166/6/3 155/6/3 154/6/3
f 166/4/3 154/4/3 165/4/3
f 167/1/3 165/1/3 152/1/3
f 167/8/3 166/8/3 165/8/3
f 168/6/3 155/6/3 166/6/3
f 168/8/3 166/8/3 167/8/3
f 169/5/3 156/5/3 155/5/3
f 169/6/3 155/6/3 168/6/3
f 170/6/3 162/6/3 156/6/3
f 170/5/3 156/5/3 169/5/3
f 171/8/3 163/8/3 162/8/3
f 171/6/3 162/6/3 170/6/3
f 172/8/3 163/8/3 171/8/3
f 174/4/3 170/4/3 169/4/3
f 174/6/3 169/6/3 168/6/3
f 175/6/3 171/6/3 170/6/3
f 175/4/3 170/4/3 174/4/3
f 176/4/3 172/4/3 171/4/3
f 176/6/3 171/6/3 175/6/3
f 177/8/3 173/8/3 172/8/3
f 177/4/3 172/4/3 176/4/3
f 178/8/3 173/8/3 177/8/3
f 180/1/3 167/1/3 152/1/3
f 181/4/3 168/4/3 167/4/3
f 181/1/3 167/1/3 180/1/3
f 182/6/3 174/6/3 168/6/3
f 182/4/3 168/4/3 181/4/3
f 183/5/3 175/5/3 174/5/3
f 183/6/3 174/6/3 182/6/3
f 184/6/3 176/6/3 175/6/3
f 184/5/3 175/5/3 183/5/3
f 185/7/3 177/7/3 176/7/3
f 185/6/3 176/6/3 184/6/3
f 185/7/3 178/7/3 177/7/3
f 186/7/3 178/7/3 185/7/3
f 187/2/3 180/2/3 179/2/3
f 188/2/3 180/2/3 187/2/3
f 192/9/3 190/9/3 189/9/3
f 192/9/3 191/9/3 190/9/3
f 193/9/3 191/9/3 192/9/3
f 194/9/3 191/9/3 193/9/3
f 197/1/3 196/1/3 195/1/3
f 199/1/3 197/1/3 195/1/3
f 199/4/3 198/4/3 197/4/3
f 200/4/3 198/4/3 199/4/3
f 201/1/3 199/1/3 195/1/3
f 202/1/3 199/1/3 201/1/3
f 206/6/3 205/6/3 204/6/3
f 208/5/3 204/5/3 203/5/3
f 209/6/3 207/6/3 206/6/3
f 209/5/3 204/5/3 208/5/3
f 209/6/3 206/6/3 204/6/3
f 210/6/3 207/6/3 209/6/3
f 211/6/3 207/6/3 210/6/3
f 213/6/3 212/6/3 211/6/3
f 213/6/3 211/6/3 210/6/3
f 214/6/3 212/6/3 213/6/3
f 215/6/3 212/6/3 214/6/3
f 216/6/3 212/6/3 215/6/3
f 217/6/3 212/6/3 216/6/3
f 218/6/3 212/6/3 217/6/3
f 227/6/3 220/6/3 219/6/3
f 227/6/3 221/6/3 220/6/3
f 227/6/3 224/6/3 223/6/3
f 227/6/3 223/6/3 222/6/3
f 227/6/3 222/6/3 221/6/3
f 228/6/3 224/6/3 227/6/3
f 229/6/3 224/6/3 228/6/3
f 230/6/3 227/6/3 226/6/3
f 230/6/3 228/6/3 227/6/3
f 231/6/3 228/6/3 230/6/3
f 232/5/3 226/5/3 225/5/3
f 233/6/3 230/6/3 226/6/3
f 233/5/3 226/5/3 232/5/3
f 234/6/3 230/6/3 233/6/3
f 237/7/3 236/7/3 235/7/3
f 238/7/3 236/7/3 237/7/3
f 239/1/4 240/1/4 241/1/4
f 239/1/4 241/1/4 242/1/4
f 239/1/4 242/1/4 243/1/4
f 243/1/4 242/1/4 244/1/4
f 245/3/4 246/3/4 247/3/4
f 247/3/4 246/3/4 248/3/4
f 249/9/4 250/9/4 251/9/4
f 251/9/4 250/9/4 252/9/4
f 255/8/4 256/8/4 257/8/4
f 257/8/4 256/8/4 258/8/4
f 253/1/4 254/1/4 259/1/4
f 259/1/4 254/1/4 260/1/4
f 262/6/4 263/6/4 264/6/4
f 261/5/4 262/5/4 266/5/4
f 264/6/4 265/6/4 267/6/4
f 266/5/4 262/5/4 267/5/4
f 262/6/4 264/6/4 267/6/4
f 267/6/4 265/6/4 268/6/4
f 268/6/4 269/6/4 270/6/4
f 267/6/4 268/6/4 270/6/4
f 270/6/4 269/6/4 271/6/4
f 271/6/4 269/6/4 272/6/4
f 273/6/4 274/6/4 277/6/4
f 274/6/4 275/6/4 277/6/4
f 277/6/4 275/6/4 278/6/4
f 278/6/4 275/6/4 279/6/4
f 277/6/4 278/6/4 280/6/4
f 280/6/4 278/6/4 281/6/4
f 276/5/4 277/5/4 282/5/4
f 277/6/4 280/6/4 283/6/4
f 282/5/4 277/5/4 283/5/4
f 283/6/4 280/6/4 284/6/4
f 285/7/4 286/7/4 287/7/4
f 287/7/4 286/7/4 288/7/4
f 289/7/4 290/7/4 291/7/4
f 291/7/4 290/7/4 292/7/4
f 297/5/5 294/5/5 293/5/5
f 298/5/5 294/5/5 297/5/5
f 299/5/5 296/5/5 295/5/5
f 300/5/5 296/5/5 299/5/5
f 304/1/5 302/1/5 301/1/5
f 305/1/5 302/1/5 304/1/5
f 307/1/5 305/1/5 304/1/5
f 308/1/5 305/1/5 307/1/5
f 309/1/5 307/1/5 304/1/5
f 310/1/5 305/1/5 308/1/5
f 311/2/5 304/2/5 303/2/5
f 312/1/5 310/1/5 309/1/5
f 312/2/5 304/2/5 311/2/5
f 312/1/5 309/1/5 304/1/5
f 313/2/5 306/2/5 305/2/5
f 313/1/5 310/1/5 312/1/5
f 313/1/5 305/1/5 310/1/5
f 314/2/5 306/2/5 313/2/5
f 315/6/5 312/6/5 311/6/5
f 316/6/5 312/6/5 315/6/5
f 317/6/5 314/6/5 313/6/5
f 318/6/5 314/6/5 317/6/5
f 323/9/5 320/9/5 319/9/5
f 323/3/5 321/3/5 320/3/5
f 324/9/5 322/9/5 321/9/5
f 324/3/5 321/3/5 323/3/5
f 325/9/5 323/9/5 319/9/5
f 326/9/5 323/9/5 325/9/5
f 327/9/5 322/9/5 324/9/5
f 328/9/5 322/9/5 327/9/5
f 331/7/5 330/7/5 329/7/5
f 332/7/5 330/7/5 331/7/5
f 333/7/5 332/7/5 331/7/5
f 334/7/5 332/7/5 333/7/5
f 337/3/5 336/3/5 335/3/5
f 338/3/5 336/3/5 337/3/5
f 339/1/6 340/1/6 342/1/6
f 342/1/6 340/1/6 343/1/6
f 341/2/6 342/2/6 347/2/6
f 347/2/6 342/2/6 348/2/6
f 343/2/6 344/2/6 349/2/6
f 349/2/6 344/2/6 350/2/6
f 345/6/6 346/6/6 353/6/6
f 353/6/6 346/6/6 354/6/6
f 351/6/6 352/6/6 355/6/6
f 355/6/6 352/6/6 356/6/6
f 357/6/6 358/6/6 361/6/6
f 361/6/6 358/6/6 362/6/6
f 359/6/6 360/6/6 363/6/6
f 363/6/6 360/6/6 364/6/6
f 365/6/6 366/6/6 369/6/6
f 369/6/6 366/6/6 370/6/6
f 367/6/6 368/6/6 371/6/6
f 371/6/6 368/6/6 372/6/6
f 373/8/6 374/8/6 375/8/6
f 375/8/6 374/8/6 376/8/6
f 377/7/6 378/7/6 379/7/6
f 379/7/6 378/7/6 380/7/6
f 381/7/6 382/7/6 383/7/6
f 383/7/6 382/7/6 384/7/6
f 386/8/6 387/8/6 391/8/6
f 388/8/6 389/8/6 392/8/6
f 386/8/6 391/8/6 393/8/6
f 392/8/6 389/8/6 394/8/6
f 385/7/6 386/7/6 395/7/6
f 393/8/6 394/8/6 395/8/6
f 386/8/6 393/8/6 395/8/6
f 394/8/6 389/8/6 396/8/6
f 395/8/6 394/8/6 396/8/6
f 389/7/6 390/7/6 396/7/6
f 385/7/6 395/7/6 397/7/6
f 396/7/6 390/7/6 398/7/6
f 385/7/6 397/7/6 399/7/6
f 397/7/6 398/7/6 399/7/6
f 398/7/6 390/7/6 400/7/6
f 399/7/6 398/7/6 400/7/6
f 401/9/6 402/9/6 403/9/6
f 403/9/6 402/9/6 404/9/6
