# MagicaVoxel @ Ephtracy

# group
g kiritan_Head

# material
mtllib kiritan_Head.mtl
usemtl palette

# normals
vn -1 0 0
vn 1 0 0
vn 0 0 1
vn 0 0 -1
vn 0 -1 0
vn 0 1 0

# texcoords
vt 0.216797 0.5
vt 0.248047 0.5
vt 0.302734 0.5
vt 0.306641 0.5
vt 0.310547 0.5

# verts
v -4.5 2 -0
v -4.5 2 -3
v -4.5 2 -4
v -4.5 2 -5
v -4.5 3 3
v -4.5 3 -0
v -4.5 3 -3
v -4.5 3 -4
v -4.5 4 4
v -4.5 4 3
v -4.5 9 4
v -4.5 9 -5
v -3.5 0 -3
v -3.5 0 -4
v -3.5 2 4
v -3.5 2 -0
v -3.5 2 -3
v -3.5 2 -4
v -3.5 3 4
v -3.5 3 3
v -3.5 3 -0
v -3.5 3 -3
v -3.5 3 -4
v -3.5 4 4
v -3.5 4 3
v -3.5 6 5
v -3.5 6 4
v -3.5 9 5
v -3.5 9 4
v -3.5 9 -4
v -3.5 10 4
v -3.5 10 -4
v -1.5 6 5
v -1.5 6 4
v -1.5 7 5
v -1.5 7 4
v 2.5 6 5
v 2.5 6 4
v 2.5 7 5
v 2.5 7 4
v -2.5 6 5
v -2.5 6 4
v -2.5 7 5
v -2.5 7 4
v 1.5 6 5
v 1.5 6 4
v 1.5 7 5
v 1.5 7 4
v 3.5 0 -3
v 3.5 0 -4
v 3.5 2 4
v 3.5 2 -0
v 3.5 2 -3
v 3.5 2 -4
v 3.5 3 4
v 3.5 3 3
v 3.5 3 -0
v 3.5 3 -3
v 3.5 3 -4
v 3.5 4 4
v 3.5 4 3
v 3.5 6 5
v 3.5 6 4
v 3.5 9 5
v 3.5 9 4
v 3.5 9 -4
v 3.5 10 4
v 3.5 10 -4
v 4.5 2 -0
v 4.5 2 -3
v 4.5 2 -4
v 4.5 2 -5
v 4.5 3 3
v 4.5 3 -0
v 4.5 3 -3
v 4.5 3 -4
v 4.5 4 4
v 4.5 4 3
v 4.5 9 4
v 4.5 9 -5
v -3.5 6 5
v -3.5 9 5
v -2.5 6 5
v -2.5 7 5
v -1.5 6 5
v -1.5 7 5
v 1.5 6 5
v 1.5 7 5
v 2.5 6 5
v 2.5 7 5
v 3.5 6 5
v 3.5 9 5
v -4.5 4 4
v -4.5 9 4
v -3.5 2 4
v -3.5 3 4
v -3.5 4 4
v -3.5 6 4
v -3.5 9 4
v -3.5 10 4
v -2.5 3 4
v -2.5 4 4
v -2.5 6 4
v -2.5 7 4
v -1.5 4 4
v -1.5 6 4
v -1.5 7 4
v -0.5 2 4
v -0.5 3 4
v 0.5 2 4
v 0.5 3 4
v 1.5 4 4
v 1.5 6 4
v 1.5 7 4
v 2.5 3 4
v 2.5 4 4
v 2.5 6 4
v 2.5 7 4
v 3.5 2 4
v 3.5 3 4
v 3.5 4 4
v 3.5 6 4
v 3.5 9 4
v 3.5 10 4
v 4.5 4 4
v 4.5 9 4
v -4.5 3 3
v -4.5 4 3
v -3.5 3 3
v -3.5 4 3
v 3.5 3 3
v 3.5 4 3
v 4.5 3 3
v 4.5 4 3
v -4.5 2 -0
v -4.5 3 -0
v -3.5 2 -0
v -3.5 3 -0
v 3.5 2 -0
v 3.5 3 -0
v 4.5 2 -0
v 4.5 3 -0
v -3.5 0 -3
v -3.5 2 -3
v 3.5 0 -3
v 3.5 2 -3
v -4.5 2 -4
v -4.5 3 -4
v -3.5 2 -4
v -3.5 3 -4
v 3.5 2 -4
v 3.5 3 -4
v 4.5 2 -4
v 4.5 3 -4
v -4.5 2 -3
v -4.5 3 -3
v -3.5 2 -3
v -3.5 3 -3
v 3.5 2 -3
v 3.5 3 -3
v 4.5 2 -3
v 4.5 3 -3
v -3.5 0 -4
v -3.5 2 -4
v -3.5 9 -4
v -3.5 10 -4
v 3.5 0 -4
v 3.5 2 -4
v 3.5 9 -4
v 3.5 10 -4
v -4.5 2 -5
v -4.5 9 -5
v 4.5 2 -5
v 4.5 9 -5
v -3.5 0 -3
v 3.5 0 -3
v -3.5 0 -4
v 3.5 0 -4
v -3.5 2 4
v -0.5 2 4
v 0.5 2 4
v 3.5 2 4
v -0.5 2 3
v 0.5 2 3
v -4.5 2 -0
v -3.5 2 -0
v 3.5 2 -0
v 4.5 2 -0
v -4.5 2 -3
v -3.5 2 -3
v 3.5 2 -3
v 4.5 2 -3
v -4.5 2 -4
v -3.5 2 -4
v 3.5 2 -4
v 4.5 2 -4
v -4.5 2 -5
v 4.5 2 -5
v -4.5 3 3
v -3.5 3 3
v 3.5 3 3
v 4.5 3 3
v -4.5 3 -0
v -3.5 3 -0
v 3.5 3 -0
v 4.5 3 -0
v -4.5 3 -3
v -3.5 3 -3
v 3.5 3 -3
v 4.5 3 -3
v -4.5 3 -4
v -3.5 3 -4
v 3.5 3 -4
v 4.5 3 -4
v -4.5 4 4
v -3.5 4 4
v 3.5 4 4
v 4.5 4 4
v -4.5 4 3
v -3.5 4 3
v 3.5 4 3
v 4.5 4 3
v -3.5 6 5
v -2.5 6 5
v -1.5 6 5
v 1.5 6 5
v 2.5 6 5
v 3.5 6 5
v -3.5 6 4
v -2.5 6 4
v -1.5 6 4
v 1.5 6 4
v 2.5 6 4
v 3.5 6 4
v -2.5 7 5
v -1.5 7 5
v 1.5 7 5
v 2.5 7 5
v -2.5 7 4
v -1.5 7 4
v 1.5 7 4
v 2.5 7 4
v -3.5 9 5
v 3.5 9 5
v -4.5 9 4
v -3.5 9 4
v 3.5 9 4
v 4.5 9 4
v -3.5 9 -4
v 3.5 9 -4
v -4.5 9 -5
v 4.5 9 -5
v -3.5 10 4
v 3.5 10 4
v -3.5 10 -4
v 3.5 10 -4

# faces
f 6/5/1 2/5/1 1/5/1
f 7/5/1 2/5/1 6/5/1
f 8/5/1 4/5/1 3/5/1
f 10/5/1 7/5/1 6/5/1
f 10/5/1 8/5/1 7/5/1
f 10/5/1 6/5/1 5/5/1
f 11/5/1 10/5/1 9/5/1
f 12/5/1 4/5/1 8/5/1
f 12/5/1 10/5/1 11/5/1
f 12/5/1 8/5/1 10/5/1
f 17/5/1 14/5/1 13/5/1
f 18/5/1 14/5/1 17/5/1
f 19/4/1 16/4/1 15/4/1
f 20/4/1 16/4/1 19/4/1
f 21/4/1 16/4/1 20/4/1
f 22/4/1 18/4/1 17/4/1
f 23/4/1 18/4/1 22/4/1
f 24/1/1 20/1/1 19/1/1
f 25/1/1 20/1/1 24/1/1
f 28/5/1 27/5/1 26/5/1
f 29/5/1 27/5/1 28/5/1
f 31/5/1 30/5/1 29/5/1
f 32/5/1 30/5/1 31/5/1
f 35/5/1 34/5/1 33/5/1
f 36/5/1 34/5/1 35/5/1
f 39/5/1 38/5/1 37/5/1
f 40/5/1 38/5/1 39/5/1
f 41/5/2 42/5/2 43/5/2
f 43/5/2 42/5/2 44/5/2
f 45/5/2 46/5/2 47/5/2
f 47/5/2 46/5/2 48/5/2
f 49/5/2 50/5/2 53/5/2
f 53/5/2 50/5/2 54/5/2
f 51/4/2 52/4/2 55/4/2
f 55/4/2 52/4/2 56/4/2
f 56/4/2 52/4/2 57/4/2
f 53/4/2 54/4/2 58/4/2
f 58/4/2 54/4/2 59/4/2
f 55/1/2 56/1/2 60/1/2
f 60/1/2 56/1/2 61/1/2
f 62/5/2 63/5/2 64/5/2
f 64/5/2 63/5/2 65/5/2
f 65/5/2 66/5/2 67/5/2
f 67/5/2 66/5/2 68/5/2
f 69/5/2 70/5/2 74/5/2
f 74/5/2 70/5/2 75/5/2
f 71/5/2 72/5/2 76/5/2
f 74/5/2 75/5/2 78/5/2
f 75/5/2 76/5/2 78/5/2
f 73/5/2 74/5/2 78/5/2
f 77/5/2 78/5/2 79/5/2
f 76/5/2 72/5/2 80/5/2
f 79/5/2 78/5/2 80/5/2
f 78/5/2 76/5/2 80/5/2
f 83/5/3 82/5/3 81/5/3
f 84/5/3 82/5/3 83/5/3
f 86/5/3 82/5/3 84/5/3
f 87/5/3 86/5/3 85/5/3
f 88/5/3 82/5/3 86/5/3
f 88/5/3 86/5/3 87/5/3
f 90/5/3 82/5/3 88/5/3
f 91/5/3 90/5/3 89/5/3
f 92/5/3 82/5/3 90/5/3
f 92/5/3 90/5/3 91/5/3
f 97/5/3 94/5/3 93/5/3
f 98/5/3 94/5/3 97/5/3
f 99/5/3 94/5/3 98/5/3
f 101/4/3 96/4/3 95/4/3
f 101/1/3 97/1/3 96/1/3
f 102/4/3 98/4/3 97/4/3
f 102/1/3 97/1/3 101/1/3
f 103/4/3 98/4/3 102/4/3
f 105/4/3 102/4/3 101/4/3
f 105/3/3 103/3/3 102/3/3
f 106/4/3 104/4/3 103/4/3
f 106/3/3 103/3/3 105/3/3
f 107/4/3 104/4/3 106/4/3
f 108/4/3 101/4/3 95/4/3
f 108/4/3 105/4/3 101/4/3
f 108/4/3 106/4/3 105/4/3
f 109/4/3 106/4/3 108/4/3
f 110/2/3 109/2/3 108/2/3
f 111/4/3 106/4/3 109/4/3
f 111/2/3 109/2/3 110/2/3
f 112/4/3 111/4/3 110/4/3
f 112/4/3 106/4/3 111/4/3
f 113/4/3 106/4/3 112/4/3
f 115/4/3 112/4/3 110/4/3
f 116/3/3 113/3/3 112/3/3
f 116/4/3 112/4/3 115/4/3
f 117/4/3 114/4/3 113/4/3
f 117/3/3 113/3/3 116/3/3
f 118/4/3 114/4/3 117/4/3
f 119/4/3 115/4/3 110/4/3
f 120/1/3 116/1/3 115/1/3
f 120/4/3 115/4/3 119/4/3
f 121/4/3 117/4/3 116/4/3
f 121/1/3 116/1/3 120/1/3
f 122/4/3 117/4/3 121/4/3
f 123/5/3 100/5/3 99/5/3
f 124/5/3 100/5/3 123/5/3
f 125/5/3 122/5/3 121/5/3
f 125/5/3 123/5/3 122/5/3
f 126/5/3 123/5/3 125/5/3
f 129/5/3 128/5/3 127/5/3
f 130/5/3 128/5/3 129/5/3
f 133/5/3 132/5/3 131/5/3
f 134/5/3 132/5/3 133/5/3
f 137/5/3 136/5/3 135/5/3
f 138/5/3 136/5/3 137/5/3
f 141/5/3 140/5/3 139/5/3
f 142/5/3 140/5/3 141/5/3
f 145/5/3 144/5/3 143/5/3
f 146/5/3 144/5/3 145/5/3
f 149/5/3 148/5/3 147/5/3
f 150/5/3 148/5/3 149/5/3
f 153/5/3 152/5/3 151/5/3
f 154/5/3 152/5/3 153/5/3
f 155/5/4 156/5/4 157/5/4
f 157/5/4 156/5/4 158/5/4
f 159/5/4 160/5/4 161/5/4
f 161/5/4 160/5/4 162/5/4
f 163/5/4 164/5/4 167/5/4
f 167/5/4 164/5/4 168/5/4
f 165/5/4 166/5/4 169/5/4
f 169/5/4 166/5/4 170/5/4
f 171/5/4 172/5/4 173/5/4
f 173/5/4 172/5/4 174/5/4
f 177/5/5 176/5/5 175/5/5
f 178/5/5 176/5/5 177/5/5
f 183/4/5 180/4/5 179/4/5
f 183/2/5 181/2/5 180/2/5
f 184/4/5 182/4/5 181/4/5
f 184/2/5 181/2/5 183/2/5
f 186/4/5 183/4/5 179/4/5
f 186/4/5 184/4/5 183/4/5
f 187/4/5 182/4/5 184/4/5
f 187/4/5 184/4/5 186/4/5
f 189/5/5 186/5/5 185/5/5
f 190/4/5 187/4/5 186/4/5
f 190/5/5 186/5/5 189/5/5
f 191/5/5 188/5/5 187/5/5
f 191/4/5 187/4/5 190/4/5
f 192/5/5 188/5/5 191/5/5
f 197/5/5 194/5/5 193/5/5
f 197/5/5 196/5/5 195/5/5
f 197/5/5 195/5/5 194/5/5
f 198/5/5 196/5/5 197/5/5
f 203/5/5 200/5/5 199/5/5
f 204/5/5 200/5/5 203/5/5
f 205/5/5 202/5/5 201/5/5
f 206/5/5 202/5/5 205/5/5
f 211/5/5 208/5/5 207/5/5
f 212/5/5 208/5/5 211/5/5
f 213/5/5 210/5/5 209/5/5
f 214/5/5 210/5/5 213/5/5
f 219/5/5 216/5/5 215/5/5
f 220/5/5 216/5/5 219/5/5
f 221/5/5 218/5/5 217/5/5
f 222/5/5 218/5/5 221/5/5
f 229/5/5 224/5/5 223/5/5
f 230/5/5 224/5/5 229/5/5
f 231/5/5 226/5/5 225/5/5
f 232/5/5 226/5/5 231/5/5
f 233/5/5 228/5/5 227/5/5
f 234/5/5 228/5/5 233/5/5
f 239/5/5 236/5/5 235/5/5
f 240/5/5 236/5/5 239/5/5
f 241/5/5 238/5/5 237/5/5
f 242/5/5 238/5/5 241/5/5
f 243/5/6 244/5/6 246/5/6
f 246/5/6 244/5/6 247/5/6
f 245/5/6 246/5/6 249/5/6
f 247/5/6 248/5/6 250/5/6
f 245/5/6 249/5/6 251/5/6
f 249/5/6 250/5/6 251/5/6
f 250/5/6 248/5/6 252/5/6
f 251/5/6 250/5/6 252/5/6
f 253/5/6 254/5/6 255/5/6
f 255/5/6 254/5/6 256/5/6
