# MagicaVoxel @ Ephtracy

# group
g StoneBlock

# material
mtllib StoneBlock.mtl
usemtl palette

# normals
vn -1 0 0
vn 1 0 0
vn 0 0 1
vn 0 0 -1
vn 0 -1 0
vn 0 1 0

# texcoords
vt 0.0957031 0.5
vt 0.0996094 0.5

# verts
v -8 0 8
v -8 0 6
v -8 0 1
v -8 0 -1
v -8 0 -6
v -8 0 -8
v -8 1 7
v -8 1 6
v -8 1 1
v -8 1 -1
v -8 1 -6
v -8 1 -7
v -8 2 8
v -8 2 7
v -8 2 -7
v -8 2 -8
v -8 7 8
v -8 7 7
v -8 7 -7
v -8 7 -8
v -8 9 8
v -8 9 7
v -8 9 -7
v -8 9 -8
v -8 14 8
v -8 14 7
v -8 14 -7
v -8 14 -8
v -8 15 7
v -8 15 6
v -8 15 1
v -8 15 -1
v -8 15 -6
v -8 15 -7
v -8 16 8
v -8 16 6
v -8 16 1
v -8 16 -1
v -8 16 -6
v -8 16 -8
v 8 0 8
v 8 0 6
v 8 0 1
v 8 0 -1
v 8 0 -6
v 8 0 -8
v 8 1 7
v 8 1 6
v 8 1 1
v 8 1 -1
v 8 1 -6
v 8 1 -7
v 8 2 8
v 8 2 7
v 8 2 -7
v 8 2 -8
v 8 7 8
v 8 7 7
v 8 7 -7
v 8 7 -8
v 8 9 8
v 8 9 7
v 8 9 -7
v 8 9 -8
v 8 14 8
v 8 14 7
v 8 14 -7
v 8 14 -8
v 8 15 7
v 8 15 6
v 8 15 1
v 8 15 -1
v 8 15 -6
v 8 15 -7
v 8 16 8
v 8 16 6
v 8 16 1
v 8 16 -1
v 8 16 -6
v 8 16 -8
v -8 0 8
v -8 2 8
v -8 7 8
v -8 9 8
v -8 14 8
v -8 16 8
v -7 1 8
v -7 2 8
v -7 7 8
v -7 9 8
v -7 14 8
v -7 15 8
v -6 0 8
v -6 1 8
v -6 15 8
v -6 16 8
v -1 0 8
v -1 1 8
v -1 15 8
v -1 16 8
v 1 0 8
v 1 1 8
v 1 15 8
v 1 16 8
v 6 0 8
v 6 1 8
v 6 15 8
v 6 16 8
v 7 1 8
v 7 2 8
v 7 7 8
v 7 9 8
v 7 14 8
v 7 15 8
v 8 0 8
v 8 2 8
v 8 7 8
v 8 9 8
v 8 14 8
v 8 16 8
v -8 0 -8
v -8 2 -8
v -8 7 -8
v -8 9 -8
v -8 14 -8
v -8 16 -8
v -7 1 -8
v -7 2 -8
v -7 7 -8
v -7 9 -8
v -7 14 -8
v -7 15 -8
v -6 0 -8
v -6 1 -8
v -6 15 -8
v -6 16 -8
v -1 0 -8
v -1 1 -8
v -1 15 -8
v -1 16 -8
v 1 0 -8
v 1 1 -8
v 1 15 -8
v 1 16 -8
v 6 0 -8
v 6 1 -8
v 6 15 -8
v 6 16 -8
v 7 1 -8
v 7 2 -8
v 7 7 -8
v 7 9 -8
v 7 14 -8
v 7 15 -8
v 8 0 -8
v 8 2 -8
v 8 7 -8
v 8 9 -8
v 8 14 -8
v 8 16 -8
v -8 0 8
v -6 0 8
v -1 0 8
v 1 0 8
v 6 0 8
v 8 0 8
v -7 0 7
v -6 0 7
v -1 0 7
v 1 0 7
v 6 0 7
v 7 0 7
v -8 0 6
v -7 0 6
v 7 0 6
v 8 0 6
v -8 0 1
v -7 0 1
v 7 0 1
v 8 0 1
v -8 0 -1
v -7 0 -1
v 7 0 -1
v 8 0 -1
v -8 0 -6
v -7 0 -6
v 7 0 -6
v 8 0 -6
v -7 0 -7
v -6 0 -7
v -1 0 -7
v 1 0 -7
v 6 0 -7
v 7 0 -7
v -8 0 -8
v -6 0 -8
v -1 0 -8
v 1 0 -8
v 6 0 -8
v 8 0 -8
v -8 16 8
v -6 16 8
v -1 16 8
v 1 16 8
v 6 16 8
v 8 16 8
v -7 16 7
v -6 16 7
v -1 16 7
v 1 16 7
v 6 16 7
v 7 16 7
v -8 16 6
v -7 16 6
v 7 16 6
v 8 16 6
v -8 16 1
v -7 16 1
v 7 16 1
v 8 16 1
v -8 16 -1
v -7 16 -1
v 7 16 -1
v 8 16 -1
v -8 16 -6
v -7 16 -6
v 7 16 -6
v 8 16 -6
v -7 16 -7
v -6 16 -7
v -1 16 -7
v 1 16 -7
v 6 16 -7
v 7 16 -7
v -8 16 -8
v -6 16 -8
v -1 16 -8
v 1 16 -8
v 6 16 -8
v 8 16 -8

# faces
f 7/2/1 2/2/1 1/2/1
f 8/1/1 3/1/1 2/1/1
f 8/2/1 2/2/1 7/2/1
f 9/2/1 4/2/1 3/2/1
f 9/1/1 3/1/1 8/1/1
f 10/1/1 5/1/1 4/1/1
f 10/2/1 4/2/1 9/2/1
f 11/2/1 6/2/1 5/2/1
f 11/1/1 5/1/1 10/1/1
f 12/2/1 6/2/1 11/2/1
f 13/2/1 7/2/1 1/2/1
f 14/1/1 10/1/1 9/1/1
f 14/2/1 7/2/1 13/2/1
f 14/1/1 8/1/1 7/1/1
f 14/1/1 12/1/1 11/1/1
f 14/1/1 11/1/1 10/1/1
f 14/1/1 9/1/1 8/1/1
f 15/2/1 6/2/1 12/2/1
f 15/1/1 12/1/1 14/1/1
f 16/2/1 6/2/1 15/2/1
f 17/1/1 14/1/1 13/1/1
f 17/1/1 15/1/1 14/1/1
f 17/1/1 16/1/1 15/1/1
f 18/1/1 16/1/1 17/1/1
f 19/1/1 16/1/1 18/1/1
f 20/1/1 16/1/1 19/1/1
f 21/2/1 18/2/1 17/2/1
f 22/1/1 19/1/1 18/1/1
f 22/2/1 18/2/1 21/2/1
f 23/2/1 20/2/1 19/2/1
f 23/1/1 19/1/1 22/1/1
f 24/2/1 20/2/1 23/2/1
f 25/1/1 22/1/1 21/1/1
f 25/1/1 23/1/1 22/1/1
f 25/1/1 24/1/1 23/1/1
f 26/1/1 24/1/1 25/1/1
f 27/1/1 24/1/1 26/1/1
f 28/1/1 24/1/1 27/1/1
f 29/2/1 26/2/1 25/2/1
f 29/1/1 27/1/1 26/1/1
f 30/1/1 27/1/1 29/1/1
f 31/1/1 27/1/1 30/1/1
f 32/1/1 27/1/1 31/1/1
f 33/1/1 27/1/1 32/1/1
f 34/2/1 28/2/1 27/2/1
f 34/1/1 27/1/1 33/1/1
f 35/2/1 29/2/1 25/2/1
f 35/2/1 30/2/1 29/2/1
f 36/1/1 31/1/1 30/1/1
f 36/2/1 30/2/1 35/2/1
f 37/2/1 32/2/1 31/2/1
f 37/1/1 31/1/1 36/1/1
f 38/1/1 33/1/1 32/1/1
f 38/2/1 32/2/1 37/2/1
f 39/2/1 34/2/1 33/2/1
f 39/1/1 33/1/1 38/1/1
f 40/2/1 28/2/1 34/2/1
f 40/2/1 34/2/1 39/2/1
f 41/2/2 42/2/2 47/2/2
f 42/1/2 43/1/2 48/1/2
f 47/2/2 42/2/2 48/2/2
f 43/2/2 44/2/2 49/2/2
f 48/1/2 43/1/2 49/1/2
f 44/1/2 45/1/2 50/1/2
f 49/2/2 44/2/2 50/2/2
f 45/2/2 46/2/2 51/2/2
f 50/1/2 45/1/2 51/1/2
f 51/2/2 46/2/2 52/2/2
f 41/2/2 47/2/2 53/2/2
f 49/1/2 50/1/2 54/1/2
f 53/2/2 47/2/2 54/2/2
f 47/1/2 48/1/2 54/1/2
f 51/1/2 52/1/2 54/1/2
f 50/1/2 51/1/2 54/1/2
f 48/1/2 49/1/2 54/1/2
f 52/2/2 46/2/2 55/2/2
f 54/1/2 52/1/2 55/1/2
f 55/2/2 46/2/2 56/2/2
f 53/1/2 54/1/2 57/1/2
f 54/1/2 55/1/2 57/1/2
f 55/1/2 56/1/2 57/1/2
f 57/1/2 56/1/2 58/1/2
f 58/1/2 56/1/2 59/1/2
f 59/1/2 56/1/2 60/1/2
f 57/2/2 58/2/2 61/2/2
f 58/1/2 59/1/2 62/1/2
f 61/2/2 58/2/2 62/2/2
f 59/2/2 60/2/2 63/2/2
f 62/1/2 59/1/2 63/1/2
f 63/2/2 60/2/2 64/2/2
f 61/1/2 62/1/2 65/1/2
f 62/1/2 63/1/2 65/1/2
f 63/1/2 64/1/2 65/1/2
f 65/1/2 64/1/2 66/1/2
f 66/1/2 64/1/2 67/1/2
f 67/1/2 64/1/2 68/1/2
f 65/2/2 66/2/2 69/2/2
f 66/1/2 67/1/2 69/1/2
f 69/1/2 67/1/2 70/1/2
f 70/1/2 67/1/2 71/1/2
f 71/1/2 67/1/2 72/1/2
f 72/1/2 67/1/2 73/1/2
f 67/2/2 68/2/2 74/2/2
f 73/1/2 67/1/2 74/1/2
f 65/2/2 69/2/2 75/2/2
f 69/2/2 70/2/2 75/2/2
f 70/1/2 71/1/2 76/1/2
f 75/2/2 70/2/2 76/2/2
f 71/2/2 72/2/2 77/2/2
f 76/1/2 71/1/2 77/1/2
f 72/1/2 73/1/2 78/1/2
f 77/2/2 72/2/2 78/2/2
f 73/2/2 74/2/2 79/2/2
f 78/1/2 73/1/2 79/1/2
f 74/2/2 68/2/2 80/2/2
f 79/2/2 74/2/2 80/2/2
f 87/2/3 82/2/3 81/2/3
f 88/1/3 83/1/3 82/1/3
f 88/2/3 82/2/3 87/2/3
f 89/2/3 84/2/3 83/2/3
f 89/1/3 83/1/3 88/1/3
f 90/1/3 85/1/3 84/1/3
f 90/2/3 84/2/3 89/2/3
f 91/2/3 86/2/3 85/2/3
f 91/1/3 85/1/3 90/1/3
f 92/2/3 86/2/3 91/2/3
f 93/2/3 87/2/3 81/2/3
f 94/1/3 90/1/3 89/1/3
f 94/2/3 87/2/3 93/2/3
f 94/1/3 88/1/3 87/1/3
f 94/1/3 92/1/3 91/1/3
f 94/1/3 91/1/3 90/1/3
f 94/1/3 89/1/3 88/1/3
f 95/2/3 86/2/3 92/2/3
f 95/1/3 92/1/3 94/1/3
f 96/2/3 86/2/3 95/2/3
f 97/1/3 94/1/3 93/1/3
f 97/1/3 95/1/3 94/1/3
f 97/1/3 96/1/3 95/1/3
f 98/1/3 96/1/3 97/1/3
f 99/1/3 96/1/3 98/1/3
f 100/1/3 96/1/3 99/1/3
f 101/2/3 98/2/3 97/2/3
f 102/1/3 99/1/3 98/1/3
f 102/2/3 98/2/3 101/2/3
f 103/2/3 100/2/3 99/2/3
f 103/1/3 99/1/3 102/1/3
f 104/2/3 100/2/3 103/2/3
f 105/1/3 102/1/3 101/1/3
f 105/1/3 103/1/3 102/1/3
f 105/1/3 104/1/3 103/1/3
f 106/1/3 104/1/3 105/1/3
f 107/1/3 104/1/3 106/1/3
f 108/1/3 104/1/3 107/1/3
f 109/2/3 106/2/3 105/2/3
f 109/1/3 107/1/3 106/1/3
f 110/1/3 107/1/3 109/1/3
f 111/1/3 107/1/3 110/1/3
f 112/1/3 107/1/3 111/1/3
f 113/1/3 107/1/3 112/1/3
f 114/2/3 108/2/3 107/2/3
f 114/1/3 107/1/3 113/1/3
f 115/2/3 109/2/3 105/2/3
f 115/2/3 110/2/3 109/2/3
f 116/1/3 111/1/3 110/1/3
f 116/2/3 110/2/3 115/2/3
f 117/2/3 112/2/3 111/2/3
f 117/1/3 111/1/3 116/1/3
f 118/1/3 113/1/3 112/1/3
f 118/2/3 112/2/3 117/2/3
f 119/2/3 114/2/3 113/2/3
f 119/1/3 113/1/3 118/1/3
f 120/2/3 108/2/3 114/2/3
f 120/2/3 114/2/3 119/2/3
f 121/2/4 122/2/4 127/2/4
f 122/1/4 123/1/4 128/1/4
f 127/2/4 122/2/4 128/2/4
f 123/2/4 124/2/4 129/2/4
f 128/1/4 123/1/4 129/1/4
f 124/1/4 125/1/4 130/1/4
f 129/2/4 124/2/4 130/2/4
f 125/2/4 126/2/4 131/2/4
f 130/1/4 125/1/4 131/1/4
f 131/2/4 126/2/4 132/2/4
f 121/2/4 127/2/4 133/2/4
f 129/1/4 130/1/4 134/1/4
f 133/2/4 127/2/4 134/2/4
f 127/1/4 128/1/4 134/1/4
f 131/1/4 132/1/4 134/1/4
f 130/1/4 131/1/4 134/1/4
f 128/1/4 129/1/4 134/1/4
f 132/2/4 126/2/4 135/2/4
f 134/1/4 132/1/4 135/1/4
f 135/2/4 126/2/4 136/2/4
f 133/1/4 134/1/4 137/1/4
f 134/1/4 135/1/4 137/1/4
f 135/1/4 136/1/4 137/1/4
f 137/1/4 136/1/4 138/1/4
f 138/1/4 136/1/4 139/1/4
f 139/1/4 136/1/4 140/1/4
f 137/2/4 138/2/4 141/2/4
f 138/1/4 139/1/4 142/1/4
f 141/2/4 138/2/4 142/2/4
f 139/2/4 140/2/4 143/2/4
f 142/1/4 139/1/4 143/1/4
f 143/2/4 140/2/4 144/2/4
f 141/1/4 142/1/4 145/1/4
f 142/1/4 143/1/4 145/1/4
f 143/1/4 144/1/4 145/1/4
f 145/1/4 144/1/4 146/1/4
f 146/1/4 144/1/4 147/1/4
f 147/1/4 144/1/4 148/1/4
f 145/2/4 146/2/4 149/2/4
f 146/1/4 147/1/4 149/1/4
f 149/1/4 147/1/4 150/1/4
f 150/1/4 147/1/4 151/1/4
f 151/1/4 147/1/4 152/1/4
f 152/1/4 147/1/4 153/1/4
f 147/2/4 148/2/4 154/2/4
f 153/1/4 147/1/4 154/1/4
f 145/2/4 149/2/4 155/2/4
f 149/2/4 150/2/4 155/2/4
f 150/1/4 151/1/4 156/1/4
f 155/2/4 150/2/4 156/2/4
f 151/2/4 152/2/4 157/2/4
f 156/1/4 151/1/4 157/1/4
f 152/1/4 153/1/4 158/1/4
f 157/2/4 152/2/4 158/2/4
f 153/2/4 154/2/4 159/2/4
f 158/1/4 153/1/4 159/1/4
f 154/2/4 148/2/4 160/2/4
f 159/2/4 154/2/4 160/2/4
f 167/2/5 162/2/5 161/2/5
f 168/1/5 163/1/5 162/1/5
f 168/2/5 162/2/5 167/2/5
f 169/2/5 164/2/5 163/2/5
f 169/1/5 163/1/5 168/1/5
f 170/1/5 165/1/5 164/1/5
f 170/2/5 164/2/5 169/2/5
f 171/2/5 166/2/5 165/2/5
f 171/1/5 165/1/5 170/1/5
f 172/2/5 166/2/5 171/2/5
f 173/2/5 167/2/5 161/2/5
f 174/1/5 170/1/5 169/1/5
f 174/2/5 167/2/5 173/2/5
f 174/1/5 168/1/5 167/1/5
f 174/1/5 172/1/5 171/1/5
f 174/1/5 171/1/5 170/1/5
f 174/1/5 169/1/5 168/1/5
f 175/2/5 166/2/5 172/2/5
f 175/1/5 172/1/5 174/1/5
f 176/2/5 166/2/5 175/2/5
f 177/1/5 174/1/5 173/1/5
f 177/1/5 175/1/5 174/1/5
f 177/1/5 176/1/5 175/1/5
f 178/1/5 176/1/5 177/1/5
f 179/1/5 176/1/5 178/1/5
f 180/1/5 176/1/5 179/1/5
f 181/2/5 178/2/5 177/2/5
f 182/1/5 179/1/5 178/1/5
f 182/2/5 178/2/5 181/2/5
f 183/2/5 180/2/5 179/2/5
f 183/1/5 179/1/5 182/1/5
f 184/2/5 180/2/5 183/2/5
f 185/1/5 182/1/5 181/1/5
f 185/1/5 183/1/5 182/1/5
f 185/1/5 184/1/5 183/1/5
f 186/1/5 184/1/5 185/1/5
f 187/1/5 184/1/5 186/1/5
f 188/1/5 184/1/5 187/1/5
f 189/2/5 186/2/5 185/2/5
f 189/1/5 187/1/5 186/1/5
f 190/1/5 187/1/5 189/1/5
f 191/1/5 187/1/5 190/1/5
f 192/1/5 187/1/5 191/1/5
f 193/1/5 187/1/5 192/1/5
f 194/2/5 188/2/5 187/2/5
f 194/1/5 187/1/5 193/1/5
f 195/2/5 189/2/5 185/2/5
f 195/2/5 190/2/5 189/2/5
f 196/1/5 191/1/5 190/1/5
f 196/2/5 190/2/5 195/2/5
f 197/2/5 192/2/5 191/2/5
f 197/1/5 191/1/5 196/1/5
f 198/1/5 193/1/5 192/1/5
f 198/2/5 192/2/5 197/2/5
f 199/2/5 194/2/5 193/2/5
f 199/1/5 193/1/5 198/1/5
f 200/2/5 188/2/5 194/2/5
f 200/2/5 194/2/5 199/2/5
f 201/2/6 202/2/6 207/2/6
f 202/1/6 203/1/6 208/1/6
f 207/2/6 202/2/6 208/2/6
f 203/2/6 204/2/6 209/2/6
f 208/1/6 203/1/6 209/1/6
f 204/1/6 205/1/6 210/1/6
f 209/2/6 204/2/6 210/2/6
f 205/2/6 206/2/6 211/2/6
f 210/1/6 205/1/6 211/1/6
f 211/2/6 206/2/6 212/2/6
f 201/2/6 207/2/6 213/2/6
f 209/1/6 210/1/6 214/1/6
f 213/2/6 207/2/6 214/2/6
f 207/1/6 208/1/6 214/1/6
f 211/1/6 212/1/6 214/1/6
f 210/1/6 211/1/6 214/1/6
f 208/1/6 209/1/6 214/1/6
f 212/2/6 206/2/6 215/2/6
f 214/1/6 212/1/6 215/1/6
f 215/2/6 206/2/6 216/2/6
f 213/1/6 214/1/6 217/1/6
f 214/1/6 215/1/6 217/1/6
f 215/1/6 216/1/6 217/1/6
f 217/1/6 216/1/6 218/1/6
f 218/1/6 216/1/6 219/1/6
f 219/1/6 216/1/6 220/1/6
f 217/2/6 218/2/6 221/2/6
f 218/1/6 219/1/6 222/1/6
f 221/2/6 218/2/6 222/2/6
f 219/2/6 220/2/6 223/2/6
f 222/1/6 219/1/6 223/1/6
f 223/2/6 220/2/6 224/2/6
f 221/1/6 222/1/6 225/1/6
f 222/1/6 223/1/6 225/1/6
f 223/1/6 224/1/6 225/1/6
f 225/1/6 224/1/6 226/1/6
f 226/1/6 224/1/6 227/1/6
f 227/1/6 224/1/6 228/1/6
f 225/2/6 226/2/6 229/2/6
f 226/1/6 227/1/6 229/1/6
f 229/1/6 227/1/6 230/1/6
f 230/1/6 227/1/6 231/1/6
f 231/1/6 227/1/6 232/1/6
f 232/1/6 227/1/6 233/1/6
f 227/2/6 228/2/6 234/2/6
f 233/1/6 227/1/6 234/1/6
f 225/2/6 229/2/6 235/2/6
f 229/2/6 230/2/6 235/2/6
f 230/1/6 231/1/6 236/1/6
f 235/2/6 230/2/6 236/2/6
f 231/2/6 232/2/6 237/2/6
f 236/1/6 231/1/6 237/1/6
f 232/1/6 233/1/6 238/1/6
f 237/2/6 232/2/6 238/2/6
f 233/2/6 234/2/6 239/2/6
f 238/1/6 233/1/6 239/1/6
f 234/2/6 228/2/6 240/2/6
f 239/2/6 234/2/6 240/2/6
